<svg xmlns="http://www.w3.org/2000/svg" viewBox="0 0 1200 630" width="1200" height="630" role="img">
<defs><linearGradient id="sky" x1="0" y1="0" x2="0" y2="1">
<stop offset="0%" stop-color="#fcefe0"/><stop offset="100%" stop-color="#f2c79b"/>
</linearGradient></defs>
<rect width="1200" height="630" fill="url(#sky)"/>
<path d="M0,630 L0,208.44 C120,208.44 180,278.35 300,278.35 C420,278.35 480,262.73 600,262.73 C720,262.73 780,206.84 900,206.84 C1020,206.84 1080,171.69 1200,171.69 L1200,630 Z" fill="#d1793c" opacity="0.55"/><path d="M0,630 L0,288.05 C96,288.05 144,322.7 240,322.7 C336,322.7 384,308.13 480,308.13 C576,308.13 624,340.03 720,340.03 C816,340.03 864,317.05 960,317.05 C1056,317.05 1104,289.35 1200,289.35 L1200,630 Z" fill="#b04b26" opacity="0.8"/><path d="M0,630 L0,470.8 C80,470.8 120,463.97 200,463.97 C280,463.97 320,456.9 400,456.9 C480,456.9 520,464.72 600,464.72 C680,464.72 720,440.51 800,440.51 C880,440.51 920,470.2 1000,470.2 C1080,470.2 1120,458.82 1200,458.82 L1200,630 Z" fill="#6f2a1c"/><ellipse cx="167.98" cy="362.91" rx="5.49" ry="3.29" fill="#efa15a" opacity="0.4" transform="rotate(4.36 167.98 362.91)"/><ellipse cx="293.92" cy="233.25" rx="7.65" ry="4.59" fill="#efa15a" opacity="0.57" transform="rotate(5.69 293.92 233.25)"/><ellipse cx="314.67" cy="436.83" rx="7.47" ry="4.48" fill="#efa15a" opacity="0.37" transform="rotate(78.9 314.67 436.83)"/><ellipse cx="954.8" cy="3.67" rx="7.66" ry="4.6" fill="#efa15a" opacity="0.3" transform="rotate(70.1 954.8 3.67)"/><ellipse cx="881.85" cy="344.94" rx="6.31" ry="3.79" fill="#efa15a" opacity="0.33" transform="rotate(150.57 881.85 344.94)"/><ellipse cx="356.42" cy="149.26" rx="6.55" ry="3.93" fill="#efa15a" opacity="0.6" transform="rotate(52.56 356.42 149.26)"/><ellipse cx="833.25" cy="9.18" rx="4.05" ry="2.43" fill="#efa15a" opacity="0.58" transform="rotate(1.05 833.25 9.18)"/><ellipse cx="315.11" cy="244.14" rx="7.52" ry="4.51" fill="#efa15a" opacity="0.27" transform="rotate(169.36 315.11 244.14)"/><ellipse cx="21.01" cy="372.51" rx="4.32" ry="2.59" fill="#efa15a" opacity="0.54" transform="rotate(77.41 21.01 372.51)"/><ellipse cx="1020.7" cy="387.85" rx="5.45" ry="3.27" fill="#efa15a" opacity="0.65" transform="rotate(178.28 1020.7 387.85)"/><ellipse cx="29.75" cy="128.33" rx="4.87" ry="2.92" fill="#efa15a" opacity="0.31" transform="rotate(40.48 29.75 128.33)"/><ellipse cx="28.76" cy="103.55" rx="6.92" ry="4.15" fill="#efa15a" opacity="0.56" transform="rotate(98.26 28.76 103.55)"/><ellipse cx="682.71" cy="137.91" rx="5.5" ry="3.3" fill="#efa15a" opacity="0.56" transform="rotate(105.55 682.71 137.91)"/><ellipse cx="1065.63" cy="6.15" rx="5.97" ry="3.58" fill="#efa15a" opacity="0.63" transform="rotate(156.21 1065.63 6.15)"/><ellipse cx="843.58" cy="63.9" rx="6.69" ry="4.01" fill="#efa15a" opacity="0.46" transform="rotate(28.01 843.58 63.9)"/><ellipse cx="583.29" cy="445.52" rx="4.63" ry="2.78" fill="#efa15a" opacity="0.63" transform="rotate(104.45 583.29 445.52)"/>
</svg>