<svg xmlns="http://www.w3.org/2000/svg" viewBox="0 0 1200 630" width="1200" height="630" role="img">
<defs><linearGradient id="sky" x1="0" y1="0" x2="0" y2="1">
<stop offset="0%" stop-color="#eef1f5"/><stop offset="100%" stop-color="#c9d2dc"/>
</linearGradient></defs>
<rect width="1200" height="630" fill="url(#sky)"/>
<path d="M0,365.4 L0,173.38 C120,173.38 180,86.71 300,86.71 C420,86.71 480,162.85 600,162.85 C720,162.85 780,121.78 900,121.78 C1020,121.78 1080,119.96 1200,119.96 L1200,365.4 Z" fill="#8d9aa8" opacity="0.6"/><path d="M0,365.4 L0,237.64 C80,237.64 120,274.38 200,274.38 C280,274.38 320,216 400,216 C480,216 520,250.9 600,250.9 C680,250.9 720,229.13 800,229.13 C880,229.13 920,219.8 1000,219.8 C1080,219.8 1120,238.3 1200,238.3 L1200,365.4 Z" fill="#5f6b78" opacity="0.85"/><rect x="106.57" y="276.69" width="8.87" height="88.71" fill="#39424c" rx="2.96"/><circle cx="104.25" cy="245.04" r="37.09" fill="#c98a4b" opacity="0.92"/><circle cx="100.67" cy="259.94" r="30.56" fill="#c98a4b" opacity="0.92"/><circle cx="101.32" cy="261.42" r="35.61" fill="#c98a4b" opacity="0.92"/><rect x="326.7" y="255.84" width="10.96" height="109.56" fill="#39424c" rx="3.65"/><circle cx="324.38" cy="225.7" r="46.39" fill="#c98a4b" opacity="0.92"/><circle cx="351.03" cy="219.07" r="56.26" fill="#c98a4b" opacity="0.92"/><circle cx="348.47" cy="216.77" r="33.8" fill="#c98a4b" opacity="0.92"/><rect x="589.47" y="268.56" width="9.68" height="96.84" fill="#39424c" rx="3.23"/><circle cx="581.54" cy="233.57" r="49.25" fill="#c98a4b" opacity="0.92"/><circle cx="608.79" cy="243.34" r="51.33" fill="#c98a4b" opacity="0.92"/><circle cx="612.56" cy="239.31" r="51.72" fill="#c98a4b" opacity="0.92"/><rect x="859.6" y="286.32" width="7.91" height="79.08" fill="#39424c" rx="2.64"/><circle cx="848.45" cy="268.78" r="29.47" fill="#c98a4b" opacity="0.92"/><circle cx="876.3" cy="268.98" r="33.32" fill="#c98a4b" opacity="0.92"/><circle cx="861.94" cy="277.52" r="34.92" fill="#c98a4b" opacity="0.92"/><rect x="1126.13" y="254.7" width="11.07" height="110.7" fill="#39424c" rx="3.69"/><circle cx="1113.45" cy="240.06" r="42.9" fill="#c98a4b" opacity="0.92"/><circle cx="1136.29" cy="228.4" r="56" fill="#c98a4b" opacity="0.92"/><circle cx="1120.95" cy="220.05" r="49.99" fill="#c98a4b" opacity="0.92"/><rect x="0" y="365.4" width="1200" height="264.6" fill="#9aa7b4"/><g opacity="0.3" transform="translate(0,730.8) scale(1,-1)"><path d="M0,365.4 L0,283 C80,283 120,240.34 200,240.34 C280,240.34 320,251.47 400,251.47 C480,251.47 520,277.33 600,277.33 C680,277.33 720,249.13 800,249.13 C880,249.13 920,272.28 1000,272.28 C1080,272.28 1120,255.01 1200,255.01 L1200,365.4 Z" fill="#5f6b78"/></g><rect x="749.22" y="576.73" width="182.13" height="2.5" rx="1.2" fill="#ffffff" opacity="0.35"/><rect x="338.89" y="412.97" width="217.84" height="2.5" rx="1.2" fill="#ffffff" opacity="0.22"/><rect x="709.15" y="577.37" width="241.21" height="2.5" rx="1.2" fill="#ffffff" opacity="0.24"/><rect x="335.92" y="510.98" width="121.6" height="2.5" rx="1.2" fill="#ffffff" opacity="0.37"/><rect x="42.76" y="459.66" width="277.07" height="2.5" rx="1.2" fill="#ffffff" opacity="0.34"/><rect x="624.68" y="385.86" width="167.97" height="2.5" rx="1.2" fill="#ffffff" opacity="0.19"/><rect x="103.57" y="417.41" width="237.7" height="2.5" rx="1.2" fill="#ffffff" opacity="0.26"/><rect x="590.65" y="553.27" width="204.33" height="2.5" rx="1.2" fill="#ffffff" opacity="0.33"/><rect x="968.3" y="597.39" width="196.27" height="2.5" rx="1.2" fill="#ffffff" opacity="0.41"/><rect x="693.01" y="559.53" width="211.39" height="2.5" rx="1.2" fill="#ffffff" opacity="0.27"/><rect x="1043.51" y="441.59" width="104.19" height="2.5" rx="1.2" fill="#ffffff" opacity="0.26"/><rect x="749.27" y="428.11" width="156.58" height="2.5" rx="1.2" fill="#ffffff" opacity="0.26"/>
</svg>