<svg xmlns="http://www.w3.org/2000/svg" viewBox="0 0 1200 500" width="1200" height="500" role="img">
<defs><linearGradient id="sky" x1="0" y1="0" x2="0" y2="1">
<stop offset="0%" stop-color="#eef1f5"/><stop offset="100%" stop-color="#c9d2dc"/>
</linearGradient></defs>
<rect width="1200" height="500" fill="url(#sky)"/>
<path d="M0,410 L0,137.16 C120,137.16 180,154.91 300,154.91 C420,154.91 480,131.46 600,131.46 C720,131.46 780,189.53 900,189.53 C1020,189.53 1080,151.18 1200,151.18 L1200,410 Z" fill="#8d9aa8" opacity="0.5"/><path d="M0,410 L0,274.78 C80,274.78 120,265.49 200,265.49 C280,265.49 320,249.68 400,249.68 C480,249.68 520,260.43 600,260.43 C680,260.43 720,260.33 800,260.33 C880,260.33 920,246.41 1000,246.41 C1080,246.41 1120,254.98 1200,254.98 L1200,410 Z" fill="#5f6b78" opacity="0.6"/><rect x="0" y="410" width="1200" height="90" fill="#39424c" opacity="0.45"/><rect x="4.63" y="340.92" width="158.75" height="69.08" fill="#5f6b78" rx="2"/><path d="M-3.37,340.92 L84.01,309.83 L171.38,340.92 Z" fill="#39424c"/><rect x="36.38" y="363.03" width="31.75" height="17.96" fill="#c98a4b" opacity="0.85" rx="1"/><rect x="103.06" y="363.03" width="31.75" height="17.96" fill="#c98a4b" opacity="0.85" rx="1"/><rect x="252.36" y="339.69" width="161.28" height="70.31" fill="#5f6b78" rx="2"/><path d="M244.36,339.69 L333,308.05 L421.64,339.69 Z" fill="#39424c"/><rect x="284.62" y="362.19" width="32.26" height="18.28" fill="#c98a4b" opacity="0.85" rx="1"/><rect x="352.35" y="362.19" width="32.26" height="18.28" fill="#c98a4b" opacity="0.85" rx="1"/><rect x="505.02" y="314.93" width="153.97" height="95.07" fill="#5f6b78" rx="2"/><path d="M497.02,314.93 L582.01,272.15 L666.99,314.93 Z" fill="#39424c"/><rect x="535.81" y="345.35" width="30.79" height="24.72" fill="#c98a4b" opacity="0.85" rx="1"/><rect x="600.48" y="345.35" width="30.79" height="24.72" fill="#c98a4b" opacity="0.85" rx="1"/><rect x="776.61" y="317.82" width="108.77" height="92.18" fill="#5f6b78" rx="2"/><path d="M768.61,317.82 L831,276.34 L893.38,317.82 Z" fill="#39424c"/><rect x="798.36" y="347.32" width="21.75" height="23.97" fill="#c98a4b" opacity="0.85" rx="1"/><rect x="844.05" y="347.32" width="21.75" height="23.97" fill="#c98a4b" opacity="0.85" rx="1"/><rect x="999.6" y="319.93" width="160.8" height="90.07" fill="#5f6b78" rx="2"/><path d="M991.6,319.93 L1080,279.4 L1168.4,319.93 Z" fill="#39424c"/><rect x="1031.76" y="348.75" width="32.16" height="23.42" fill="#c98a4b" opacity="0.85" rx="1"/><rect x="1099.3" y="348.75" width="32.16" height="23.42" fill="#c98a4b" opacity="0.85" rx="1"/><rect x="217.41" y="353.65" width="7.45" height="74.55" fill="#39424c" rx="2.48"/><circle cx="207.9" cy="330.62" r="28.85" fill="#c98a4b" opacity="0.92"/><circle cx="215.28" cy="324.42" r="39.73" fill="#c98a4b" opacity="0.92"/><circle cx="227.85" cy="339.46" r="31.86" fill="#c98a4b" opacity="0.92"/><rect x="476.07" y="333.13" width="9.83" height="98.34" fill="#39424c" rx="3.28"/><circle cx="476.61" cy="295.43" r="30.18" fill="#c98a4b" opacity="0.92"/><circle cx="486.83" cy="305.96" r="40.33" fill="#c98a4b" opacity="0.92"/><circle cx="473.47" cy="309.6" r="34.21" fill="#c98a4b" opacity="0.92"/><rect x="745.62" y="371.48" width="6.98" height="69.75" fill="#39424c" rx="2.33"/><circle cx="740.49" cy="347.3" r="22.13" fill="#c98a4b" opacity="0.92"/><circle cx="745.81" cy="363.83" r="33.18" fill="#c98a4b" opacity="0.92"/><circle cx="754.47" cy="343.74" r="30.66" fill="#c98a4b" opacity="0.92"/><rect x="1064.76" y="368.75" width="7.08" height="70.78" fill="#39424c" rx="2.36"/><circle cx="1063.95" cy="352.04" r="25.62" fill="#c98a4b" opacity="0.92"/><circle cx="1063.81" cy="344.24" r="37.2" fill="#c98a4b" opacity="0.92"/><circle cx="1070.7" cy="344.23" r="34.76" fill="#c98a4b" opacity="0.92"/><ellipse cx="800.01" cy="194.1" rx="7.03" ry="4.22" fill="#c98a4b" opacity="0.57" transform="rotate(84.19 800.01 194.1)"/><ellipse cx="1058.92" cy="71" rx="5.43" ry="3.26" fill="#c98a4b" opacity="0.35" transform="rotate(102.51 1058.92 71)"/><ellipse cx="216.13" cy="218.5" rx="6.9" ry="4.14" fill="#c98a4b" opacity="0.59" transform="rotate(156.17 216.13 218.5)"/><ellipse cx="160.11" cy="237.15" rx="5.54" ry="3.32" fill="#c98a4b" opacity="0.41" transform="rotate(127.7 160.11 237.15)"/><ellipse cx="368.38" cy="36.69" rx="5.34" ry="3.2" fill="#c98a4b" opacity="0.29" transform="rotate(142.32 368.38 36.69)"/><ellipse cx="223.9" cy="259.74" rx="4.91" ry="2.95" fill="#c98a4b" opacity="0.41" transform="rotate(19.11 223.9 259.74)"/><ellipse cx="744.66" cy="106.54" rx="3.62" ry="2.17" fill="#c98a4b" opacity="0.52" transform="rotate(44.67 744.66 106.54)"/><ellipse cx="611.08" cy="231.8" rx="6.74" ry="4.04" fill="#c98a4b" opacity="0.49" transform="rotate(77.26 611.08 231.8)"/><ellipse cx="1024.03" cy="236.79" rx="6.94" ry="4.16" fill="#c98a4b" opacity="0.63" transform="rotate(48.63 1024.03 236.79)"/><ellipse cx="317.68" cy="245.3" rx="4.66" ry="2.8" fill="#c98a4b" opacity="0.57" transform="rotate(133.94 317.68 245.3)"/><ellipse cx="1177.98" cy="47.95" rx="6.32" ry="3.79" fill="#c98a4b" opacity="0.33" transform="rotate(65.69 1177.98 47.95)"/><ellipse cx="388.5" cy="127.5" rx="7.48" ry="4.49" fill="#c98a4b" opacity="0.32" transform="rotate(109.9 388.5 127.5)"/><ellipse cx="817.85" cy="254.26" rx="6.81" ry="4.09" fill="#c98a4b" opacity="0.37" transform="rotate(129.82 817.85 254.26)"/><ellipse cx="158.46" cy="96.51" rx="7.98" ry="4.79" fill="#c98a4b" opacity="0.27" transform="rotate(63.81 158.46 96.51)"/>
</svg>