<svg xmlns="http://www.w3.org/2000/svg" viewBox="0 0 1200 630" width="1200" height="630" role="img">
<defs><linearGradient id="sky" x1="0" y1="0" x2="0" y2="1">
<stop offset="0%" stop-color="#f7f3e6"/><stop offset="100%" stop-color="#e2d7b6"/>
</linearGradient></defs>
<rect width="1200" height="630" fill="url(#sky)"/>
<path d="M0,365.4 L0,79.08 C120,79.08 180,79.9 300,79.9 C420,79.9 480,148.02 600,148.02 C720,148.02 780,165.2 900,165.2 C1020,165.2 1080,112.26 1200,112.26 L1200,365.4 Z" fill="#b9a672" opacity="0.6"/><path d="M0,365.4 L0,222.74 C80,222.74 120,250.89 200,250.89 C280,250.89 320,242.42 400,242.42 C480,242.42 520,268.68 600,268.68 C680,268.68 720,216.94 800,216.94 C880,216.94 920,257.19 1000,257.19 C1080,257.19 1120,257.21 1200,257.21 L1200,365.4 Z" fill="#8d7c4c" opacity="0.85"/><rect x="105.88" y="277.6" width="8.78" height="87.8" fill="#5a4f30" rx="2.93"/><circle cx="121.75" cy="257.39" r="29.69" fill="#d8c88c" opacity="0.92"/><circle cx="120.46" cy="263.51" r="29.12" fill="#d8c88c" opacity="0.92"/><circle cx="119.82" cy="253.41" r="33.35" fill="#d8c88c" opacity="0.92"/><rect x="378.1" y="263.54" width="10.19" height="101.86" fill="#5a4f30" rx="3.4"/><circle cx="397.41" cy="223.49" r="52.7" fill="#d8c88c" opacity="0.92"/><circle cx="394.34" cy="247.99" r="52.99" fill="#d8c88c" opacity="0.92"/><circle cx="402.41" cy="233.45" r="33.5" fill="#d8c88c" opacity="0.92"/><rect x="602.35" y="267.03" width="9.84" height="98.37" fill="#5a4f30" rx="3.28"/><circle cx="602.34" cy="232.11" r="32.73" fill="#d8c88c" opacity="0.92"/><circle cx="603.56" cy="256.85" r="51.63" fill="#d8c88c" opacity="0.92"/><circle cx="601.92" cy="249.72" r="47.7" fill="#d8c88c" opacity="0.92"/><rect x="845.59" y="267.97" width="9.74" height="97.43" fill="#5a4f30" rx="3.25"/><circle cx="848.14" cy="237.5" r="31.83" fill="#d8c88c" opacity="0.92"/><circle cx="833.46" cy="244.22" r="41.39" fill="#d8c88c" opacity="0.92"/><circle cx="837.54" cy="255.63" r="50.56" fill="#d8c88c" opacity="0.92"/><rect x="1109.94" y="288.04" width="7.74" height="77.36" fill="#5a4f30" rx="2.58"/><circle cx="1113.46" cy="268.78" r="35.56" fill="#d8c88c" opacity="0.92"/><circle cx="1111.06" cy="260.39" r="26.88" fill="#d8c88c" opacity="0.92"/><circle cx="1112.61" cy="278.9" r="27.94" fill="#d8c88c" opacity="0.92"/><rect x="0" y="365.4" width="1200" height="264.6" fill="#a99f78"/><g opacity="0.3" transform="translate(0,730.8) scale(1,-1)"><path d="M0,365.4 L0,278.96 C80,278.96 120,276.42 200,276.42 C280,276.42 320,244.29 400,244.29 C480,244.29 520,247.74 600,247.74 C680,247.74 720,255.62 800,255.62 C880,255.62 920,284.26 1000,284.26 C1080,284.26 1120,262.58 1200,262.58 L1200,365.4 Z" fill="#8d7c4c"/></g><rect x="866.3" y="548.8" width="154.08" height="2.5" rx="1.2" fill="#ffffff" opacity="0.25"/><rect x="675.39" y="425.4" width="69.53" height="2.5" rx="1.2" fill="#ffffff" opacity="0.26"/><rect x="807.3" y="600.09" width="191.95" height="2.5" rx="1.2" fill="#ffffff" opacity="0.32"/><rect x="598.74" y="528.03" width="111.38" height="2.5" rx="1.2" fill="#ffffff" opacity="0.24"/><rect x="574.32" y="610.77" width="235.88" height="2.5" rx="1.2" fill="#ffffff" opacity="0.32"/><rect x="986.29" y="493.19" width="176.83" height="2.5" rx="1.2" fill="#ffffff" opacity="0.36"/><rect x="1082.92" y="623.61" width="93.27" height="2.5" rx="1.2" fill="#ffffff" opacity="0.3"/><rect x="652.08" y="521.37" width="109.31" height="2.5" rx="1.2" fill="#ffffff" opacity="0.25"/><rect x="176.06" y="556.9" width="198.85" height="2.5" rx="1.2" fill="#ffffff" opacity="0.33"/><rect x="908.34" y="536.36" width="89.75" height="2.5" rx="1.2" fill="#ffffff" opacity="0.41"/><rect x="826.48" y="381.94" width="214.46" height="2.5" rx="1.2" fill="#ffffff" opacity="0.41"/><rect x="1063.02" y="387.48" width="111.26" height="2.5" rx="1.2" fill="#ffffff" opacity="0.37"/>
</svg>