<svg xmlns="http://www.w3.org/2000/svg" viewBox="0 0 1200 500" width="1200" height="500" role="img">
<defs><linearGradient id="sky" x1="0" y1="0" x2="0" y2="1">
<stop offset="0%" stop-color="#f3f4e6"/><stop offset="100%" stop-color="#d9dfb8"/>
</linearGradient></defs>
<rect width="1200" height="500" fill="url(#sky)"/>
<path d="M0,290 L0,82.25 C120,82.25 180,101.6 300,101.6 C420,101.6 480,99.9 600,99.9 C720,99.9 780,128.09 900,128.09 C1020,128.09 1080,126.98 1200,126.98 L1200,290 Z" fill="#8f9c5c" opacity="0.6"/><path d="M0,290 L0,214.71 C80,214.71 120,207.86 200,207.86 C280,207.86 320,178.89 400,178.89 C480,178.89 520,183.25 600,183.25 C680,183.25 720,179.4 800,179.4 C880,179.4 920,183.83 1000,183.83 C1080,183.83 1120,170.31 1200,170.31 L1200,290 Z" fill="#5f7040" opacity="0.85"/><rect x="124.85" y="180.36" width="10.96" height="109.64" fill="#39482c" rx="3.65"/><circle cx="141.8" cy="155.69" r="38.79" fill="#b8c274" opacity="0.92"/><circle cx="130.67" cy="165.93" r="47.85" fill="#b8c274" opacity="0.92"/><circle cx="124.4" cy="146.81" r="41.4" fill="#b8c274" opacity="0.92"/><rect x="352.05" y="209.34" width="8.07" height="80.66" fill="#39482c" rx="2.69"/><circle cx="365.34" cy="195.94" r="32.06" fill="#b8c274" opacity="0.92"/><circle cx="344.24" cy="195.08" r="30.71" fill="#b8c274" opacity="0.92"/><circle cx="370.28" cy="188.97" r="29.32" fill="#b8c274" opacity="0.92"/><rect x="595.26" y="206.53" width="8.35" height="83.47" fill="#39482c" rx="2.78"/><circle cx="599.85" cy="196.45" r="43.87" fill="#b8c274" opacity="0.92"/><circle cx="607.23" cy="178.13" r="34.31" fill="#b8c274" opacity="0.92"/><circle cx="597.44" cy="174.28" r="43.79" fill="#b8c274" opacity="0.92"/><rect x="829.68" y="179.35" width="11.07" height="110.65" fill="#39482c" rx="3.69"/><circle cx="852.29" cy="137.1" r="50.96" fill="#b8c274" opacity="0.92"/><circle cx="820.32" cy="154.87" r="59.34" fill="#b8c274" opacity="0.92"/><circle cx="854.09" cy="141.63" r="35.59" fill="#b8c274" opacity="0.92"/><rect x="1107.9" y="212.61" width="7.74" height="77.39" fill="#39482c" rx="2.58"/><circle cx="1117.71" cy="197.69" r="39.27" fill="#b8c274" opacity="0.92"/><circle cx="1121.08" cy="192.42" r="24.27" fill="#b8c274" opacity="0.92"/><circle cx="1100.15" cy="184.42" r="24.89" fill="#b8c274" opacity="0.92"/><rect x="0" y="290" width="1200" height="210" fill="#7d8f68"/><g opacity="0.3" transform="translate(0,580) scale(1,-1)"><path d="M0,290 L0,227.88 C80,227.88 120,225.03 200,225.03 C280,225.03 320,204.84 400,204.84 C480,204.84 520,228.75 600,228.75 C680,228.75 720,228.65 800,228.65 C880,228.65 920,195.18 1000,195.18 C1080,195.18 1120,214.12 1200,214.12 L1200,290 Z" fill="#5f7040"/></g><rect x="48.9" y="449.75" width="156.16" height="2.5" rx="1.2" fill="#ffffff" opacity="0.33"/><rect x="541.97" y="365.91" width="155.92" height="2.5" rx="1.2" fill="#ffffff" opacity="0.27"/><rect x="300.67" y="439.4" width="255.87" height="2.5" rx="1.2" fill="#ffffff" opacity="0.41"/><rect x="251.34" y="410.98" width="115.92" height="2.5" rx="1.2" fill="#ffffff" opacity="0.3"/><rect x="262.36" y="490.12" width="234.64" height="2.5" rx="1.2" fill="#ffffff" opacity="0.19"/><rect x="498.88" y="385.77" width="252.27" height="2.5" rx="1.2" fill="#ffffff" opacity="0.22"/><rect x="446.21" y="489.86" width="129.71" height="2.5" rx="1.2" fill="#ffffff" opacity="0.22"/><rect x="418.61" y="431.59" width="84.19" height="2.5" rx="1.2" fill="#ffffff" opacity="0.37"/><rect x="661.33" y="343.38" width="78.68" height="2.5" rx="1.2" fill="#ffffff" opacity="0.25"/><rect x="108.09" y="475.29" width="205.01" height="2.5" rx="1.2" fill="#ffffff" opacity="0.31"/><rect x="88.9" y="350.58" width="93.43" height="2.5" rx="1.2" fill="#ffffff" opacity="0.23"/><rect x="941.18" y="387.07" width="113.58" height="2.5" rx="1.2" fill="#ffffff" opacity="0.4"/>
</svg>