<svg xmlns="http://www.w3.org/2000/svg" viewBox="0 0 1200 630" width="1200" height="630" role="img">
<defs><linearGradient id="sky" x1="0" y1="0" x2="0" y2="1">
<stop offset="0%" stop-color="#f3f4e6"/><stop offset="100%" stop-color="#d9dfb8"/>
</linearGradient></defs>
<rect width="1200" height="630" fill="url(#sky)"/>
<rect x="0" y="346.5" width="1200" height="283.5" fill="#5f7040" opacity="0.25"/><rect x="96" y="309.94" width="120" height="219.26" fill="#8f9c5c" opacity="0.75" rx="3"/><circle cx="168.13" cy="503.22" r="20.87" fill="#b8c274" opacity="0.5"/><circle cx="213.96" cy="430.06" r="23.51" fill="#b8c274" opacity="0.5"/><circle cx="115.08" cy="327.53" r="16.75" fill="#b8c274" opacity="0.5"/><circle cx="203.77" cy="498.96" r="18.97" fill="#b8c274" opacity="0.5"/><circle cx="182.44" cy="376.3" r="21.64" fill="#b8c274" opacity="0.5"/><rect x="336" y="286.16" width="120" height="243.04" fill="#8f9c5c" opacity="0.75" rx="3"/><circle cx="439.22" cy="305.2" r="19.98" fill="#b8c274" opacity="0.5"/><circle cx="339.29" cy="361.45" r="23.87" fill="#b8c274" opacity="0.5"/><circle cx="377.31" cy="344.08" r="13.91" fill="#b8c274" opacity="0.5"/><circle cx="339.94" cy="484.18" r="24.77" fill="#b8c274" opacity="0.5"/><circle cx="450.55" cy="444.56" r="24.76" fill="#b8c274" opacity="0.5"/><rect x="576" y="312.96" width="120" height="216.24" fill="#8f9c5c" opacity="0.75" rx="3"/><circle cx="620.78" cy="363.88" r="15.28" fill="#b8c274" opacity="0.5"/><circle cx="612.97" cy="346.04" r="16.66" fill="#b8c274" opacity="0.5"/><circle cx="660.25" cy="465.26" r="24.28" fill="#b8c274" opacity="0.5"/><circle cx="645.89" cy="320.19" r="24.64" fill="#b8c274" opacity="0.5"/><circle cx="686.01" cy="438.54" r="16.23" fill="#b8c274" opacity="0.5"/><rect x="816" y="357.82" width="120" height="171.38" fill="#8f9c5c" opacity="0.75" rx="3"/><circle cx="882.9" cy="465.76" r="23.6" fill="#b8c274" opacity="0.5"/><circle cx="859.31" cy="451.91" r="22.62" fill="#b8c274" opacity="0.5"/><circle cx="924.06" cy="416.38" r="18.13" fill="#b8c274" opacity="0.5"/><circle cx="907.01" cy="453.18" r="19.6" fill="#b8c274" opacity="0.5"/><circle cx="833.28" cy="487.25" r="17.77" fill="#b8c274" opacity="0.5"/><rect x="1056" y="295.88" width="120" height="233.32" fill="#8f9c5c" opacity="0.75" rx="3"/><circle cx="1091.35" cy="516.4" r="18.45" fill="#b8c274" opacity="0.5"/><circle cx="1084.54" cy="324.64" r="22.6" fill="#b8c274" opacity="0.5"/><circle cx="1171.48" cy="420.33" r="19.71" fill="#b8c274" opacity="0.5"/><circle cx="1095.72" cy="341.37" r="14.95" fill="#b8c274" opacity="0.5"/><circle cx="1061.71" cy="439.87" r="13.59" fill="#b8c274" opacity="0.5"/><rect x="0" y="529.2" width="1200" height="100.8" fill="#39482c" opacity="0.5"/><ellipse cx="506.04" cy="204.94" rx="3.82" ry="2.29" fill="#b8c274" opacity="0.27" transform="rotate(21.06 506.04 204.94)"/><ellipse cx="591.66" cy="135.31" rx="6.91" ry="4.15" fill="#b8c274" opacity="0.29" transform="rotate(150.79 591.66 135.31)"/><ellipse cx="781.7" cy="332.24" rx="3.07" ry="1.84" fill="#b8c274" opacity="0.6" transform="rotate(26.7 781.7 332.24)"/><ellipse cx="998.05" cy="354.83" rx="7.67" ry="4.6" fill="#b8c274" opacity="0.39" transform="rotate(22.13 998.05 354.83)"/><ellipse cx="1188.71" cy="303.88" rx="4.11" ry="2.47" fill="#b8c274" opacity="0.62" transform="rotate(35.9 1188.71 303.88)"/><ellipse cx="490.96" cy="331.74" rx="3.54" ry="2.12" fill="#b8c274" opacity="0.42" transform="rotate(33.53 490.96 331.74)"/><ellipse cx="984.16" cy="447.69" rx="7.22" ry="4.33" fill="#b8c274" opacity="0.55" transform="rotate(109.26 984.16 447.69)"/><ellipse cx="156.88" cy="422.33" rx="5.5" ry="3.3" fill="#b8c274" opacity="0.62" transform="rotate(18.19 156.88 422.33)"/><ellipse cx="352.87" cy="50.81" rx="6.34" ry="3.8" fill="#b8c274" opacity="0.51" transform="rotate(159.25 352.87 50.81)"/><ellipse cx="868.52" cy="327.77" rx="3.16" ry="1.9" fill="#b8c274" opacity="0.26" transform="rotate(42.47 868.52 327.77)"/><ellipse cx="208.01" cy="390.15" rx="4.62" ry="2.77" fill="#b8c274" opacity="0.33" transform="rotate(96.41 208.01 390.15)"/><ellipse cx="633.94" cy="128.2" rx="5.5" ry="3.3" fill="#b8c274" opacity="0.62" transform="rotate(143.88 633.94 128.2)"/><ellipse cx="689.27" cy="394.9" rx="7.43" ry="4.46" fill="#b8c274" opacity="0.46" transform="rotate(154.78 689.27 394.9)"/><ellipse cx="579.83" cy="225.08" rx="5.04" ry="3.02" fill="#b8c274" opacity="0.31" transform="rotate(37.96 579.83 225.08)"/><ellipse cx="441.82" cy="336.62" rx="3.78" ry="2.27" fill="#b8c274" opacity="0.59" transform="rotate(134.21 441.82 336.62)"/><ellipse cx="481.66" cy="58.3" rx="6.86" ry="4.12" fill="#b8c274" opacity="0.29" transform="rotate(139.83 481.66 58.3)"/>
</svg>