<svg xmlns="http://www.w3.org/2000/svg" viewBox="0 0 1200 500" width="1200" height="500" role="img">
<defs><linearGradient id="sky" x1="0" y1="0" x2="0" y2="1">
<stop offset="0%" stop-color="#fcefe0"/><stop offset="100%" stop-color="#f2c79b"/>
</linearGradient></defs>
<rect width="1200" height="500" fill="url(#sky)"/>
<rect x="0" y="210" width="1200" height="290" fill="#6f2a1c" opacity="0.55"/><path d="M567.41,210 C507.41,355 288,430 192,500 L1056,500 C960,430 627.41,355 567.41,210 Z" fill="#f2c79b" opacity="0.95"/><rect x="505.97" y="227.6" width="2.88" height="28.8" fill="#6f2a1c" rx="0.96"/><circle cx="512.25" cy="219.02" r="9.68" fill="#d1793c" opacity="0.92"/><circle cx="509.14" cy="217.75" r="9" fill="#d1793c" opacity="0.92"/><circle cx="512.64" cy="218.45" r="14.8" fill="#d1793c" opacity="0.92"/><rect x="625.97" y="227.6" width="2.88" height="28.8" fill="#6f2a1c" rx="0.96"/><circle cx="622.56" cy="218.46" r="15.25" fill="#efa15a" opacity="0.92"/><circle cx="626.87" cy="218.41" r="11.5" fill="#efa15a" opacity="0.92"/><circle cx="632.04" cy="217.3" r="10.47" fill="#efa15a" opacity="0.92"/><rect x="433.17" y="248.82" width="4.49" height="44.87" fill="#6f2a1c" rx="1.5"/><circle cx="437.26" cy="241.82" r="17.39" fill="#d1793c" opacity="0.92"/><circle cx="430.33" cy="239.38" r="23.26" fill="#d1793c" opacity="0.92"/><circle cx="439.22" cy="236.93" r="14.59" fill="#d1793c" opacity="0.92"/><rect x="697.17" y="248.82" width="4.49" height="44.87" fill="#6f2a1c" rx="1.5"/><circle cx="705.96" cy="235.54" r="23.65" fill="#efa15a" opacity="0.92"/><circle cx="700.65" cy="233.47" r="16.52" fill="#efa15a" opacity="0.92"/><circle cx="702.18" cy="238.26" r="18.01" fill="#efa15a" opacity="0.92"/><rect x="360.36" y="270.03" width="6.09" height="60.94" fill="#6f2a1c" rx="2.03"/><circle cx="370.97" cy="250.74" r="26.5" fill="#d1793c" opacity="0.92"/><circle cx="358.69" cy="259.38" r="18.96" fill="#d1793c" opacity="0.92"/><circle cx="363.56" cy="256.37" r="25.78" fill="#d1793c" opacity="0.92"/><rect x="768.36" y="270.03" width="6.09" height="60.94" fill="#6f2a1c" rx="2.03"/><circle cx="762.21" cy="246.08" r="20.06" fill="#efa15a" opacity="0.92"/><circle cx="766.05" cy="262.09" r="29.96" fill="#efa15a" opacity="0.92"/><circle cx="775.72" cy="254.33" r="32.69" fill="#efa15a" opacity="0.92"/><rect x="287.56" y="291.25" width="7.7" height="77.01" fill="#6f2a1c" rx="2.57"/><circle cx="298.68" cy="271.06" r="28.94" fill="#d1793c" opacity="0.92"/><circle cx="283.68" cy="263.98" r="34.63" fill="#d1793c" opacity="0.92"/><circle cx="280.83" cy="274.49" r="34.83" fill="#d1793c" opacity="0.92"/><rect x="839.56" y="291.25" width="7.7" height="77.01" fill="#6f2a1c" rx="2.57"/><circle cx="833.11" cy="260.75" r="40.74" fill="#efa15a" opacity="0.92"/><circle cx="848.14" cy="277" r="26.11" fill="#efa15a" opacity="0.92"/><circle cx="829.95" cy="274.54" r="27.2" fill="#efa15a" opacity="0.92"/><rect x="214.76" y="312.45" width="9.31" height="93.09" fill="#6f2a1c" rx="3.1"/><circle cx="211.22" cy="301.15" r="28.79" fill="#d1793c" opacity="0.92"/><circle cx="212.12" cy="280.61" r="49.51" fill="#d1793c" opacity="0.92"/><circle cx="204.21" cy="282.25" r="43.41" fill="#d1793c" opacity="0.92"/><rect x="910.76" y="312.45" width="9.31" height="93.09" fill="#6f2a1c" rx="3.1"/><circle cx="917.15" cy="301.57" r="39.75" fill="#efa15a" opacity="0.92"/><circle cx="932.61" cy="286.02" r="40.69" fill="#efa15a" opacity="0.92"/><circle cx="915.56" cy="302.91" r="29.43" fill="#efa15a" opacity="0.92"/><rect x="141.95" y="333.67" width="10.92" height="109.16" fill="#6f2a1c" rx="3.64"/><circle cx="166.56" cy="304.54" r="36.42" fill="#d1793c" opacity="0.92"/><circle cx="129.2" cy="295.15" r="57.62" fill="#d1793c" opacity="0.92"/><circle cx="159.24" cy="296.87" r="41.3" fill="#d1793c" opacity="0.92"/><rect x="981.95" y="333.67" width="10.92" height="109.16" fill="#6f2a1c" rx="3.64"/><circle cx="994.03" cy="289.1" r="38.01" fill="#efa15a" opacity="0.92"/><circle cx="1008.68" cy="295.84" r="47.33" fill="#efa15a" opacity="0.92"/><circle cx="974.38" cy="295.48" r="57.81" fill="#efa15a" opacity="0.92"/><rect x="69.15" y="354.88" width="12.52" height="125.23" fill="#6f2a1c" rx="4.17"/><circle cx="61.01" cy="335.67" r="40.82" fill="#d1793c" opacity="0.92"/><circle cx="88.17" cy="318.13" r="57.06" fill="#d1793c" opacity="0.92"/><circle cx="81.47" cy="320.6" r="39.95" fill="#d1793c" opacity="0.92"/><rect x="1053.15" y="354.88" width="12.52" height="125.23" fill="#6f2a1c" rx="4.17"/><circle cx="1080.72" cy="315.45" r="53.54" fill="#efa15a" opacity="0.92"/><circle cx="1071.68" cy="323.79" r="54.28" fill="#efa15a" opacity="0.92"/><circle cx="1050.8" cy="338.61" r="52.72" fill="#efa15a" opacity="0.92"/><ellipse cx="541.47" cy="327.71" rx="3.89" ry="2.33" fill="#efa15a" opacity="0.51" transform="rotate(25.41 541.47 327.71)"/><ellipse cx="300.32" cy="22.11" rx="5.76" ry="3.46" fill="#efa15a" opacity="0.58" transform="rotate(105.86 300.32 22.11)"/><ellipse cx="615.27" cy="255.86" rx="5.69" ry="3.41" fill="#efa15a" opacity="0.35" transform="rotate(16.69 615.27 255.86)"/><ellipse cx="599.46" cy="123.47" rx="7.77" ry="4.66" fill="#efa15a" opacity="0.49" transform="rotate(9.58 599.46 123.47)"/><ellipse cx="1108.7" cy="203.62" rx="4.35" ry="2.61" fill="#efa15a" opacity="0.64" transform="rotate(51.81 1108.7 203.62)"/><ellipse cx="604.79" cy="41.28" rx="5.13" ry="3.08" fill="#efa15a" opacity="0.58" transform="rotate(70.58 604.79 41.28)"/><ellipse cx="675.3" cy="190.94" rx="4.69" ry="2.81" fill="#efa15a" opacity="0.54" transform="rotate(176.51 675.3 190.94)"/><ellipse cx="618.26" cy="63.83" rx="3.48" ry="2.09" fill="#efa15a" opacity="0.43" transform="rotate(109.68 618.26 63.83)"/><ellipse cx="712.2" cy="199.75" rx="7.39" ry="4.43" fill="#efa15a" opacity="0.43" transform="rotate(98.63 712.2 199.75)"/><ellipse cx="1113.77" cy="142.98" rx="5.03" ry="3.02" fill="#efa15a" opacity="0.43" transform="rotate(101.74 1113.77 142.98)"/><ellipse cx="448.04" cy="232.58" rx="5.27" ry="3.16" fill="#efa15a" opacity="0.26" transform="rotate(166.14 448.04 232.58)"/><ellipse cx="1187.9" cy="136.33" rx="7.87" ry="4.72" fill="#efa15a" opacity="0.45" transform="rotate(179.73 1187.9 136.33)"/><ellipse cx="640.83" cy="264.46" rx="3.26" ry="1.96" fill="#efa15a" opacity="0.64" transform="rotate(66.95 640.83 264.46)"/><ellipse cx="891.11" cy="11.93" rx="6.35" ry="3.81" fill="#efa15a" opacity="0.61" transform="rotate(173.69 891.11 11.93)"/><ellipse cx="22.26" cy="300.07" rx="7.21" ry="4.33" fill="#efa15a" opacity="0.62" transform="rotate(53.89 22.26 300.07)"/><ellipse cx="560.97" cy="283" rx="7.15" ry="4.29" fill="#efa15a" opacity="0.52" transform="rotate(23.42 560.97 283)"/><ellipse cx="1149.19" cy="156.06" rx="3.17" ry="1.9" fill="#efa15a" opacity="0.54" transform="rotate(100.76 1149.19 156.06)"/><ellipse cx="121.11" cy="288.38" rx="6.24" ry="3.74" fill="#efa15a" opacity="0.47" transform="rotate(68.14 121.11 288.38)"/><ellipse cx="93.73" cy="333.52" rx="6.43" ry="3.86" fill="#efa15a" opacity="0.3" transform="rotate(24.59 93.73 333.52)"/><ellipse cx="564.35" cy="354.71" rx="5.04" ry="3.02" fill="#efa15a" opacity="0.35" transform="rotate(73.78 564.35 354.71)"/><ellipse cx="205.97" cy="19.47" rx="6.11" ry="3.67" fill="#efa15a" opacity="0.5" transform="rotate(147.64 205.97 19.47)"/><ellipse cx="1147.23" cy="215.13" rx="5.78" ry="3.47" fill="#efa15a" opacity="0.53" transform="rotate(134.44 1147.23 215.13)"/>
</svg>