<svg xmlns="http://www.w3.org/2000/svg" viewBox="0 0 1200 500" width="1200" height="500" role="img">
<defs><linearGradient id="sky" x1="0" y1="0" x2="0" y2="1">
<stop offset="0%" stop-color="#fdf4e0"/><stop offset="100%" stop-color="#f4d193"/>
</linearGradient></defs>
<rect width="1200" height="500" fill="url(#sky)"/>
<path d="M0,280 L0,151.62 C96,151.62 144,137.34 240,137.34 C336,137.34 384,153.59 480,153.59 C576,153.59 624,139.82 720,139.82 C816,139.82 864,152.44 960,152.44 C1056,152.44 1104,161.45 1200,161.45 L1200,280 Z" fill="#d9a04a" opacity="0.45"/><rect x="0" y="280" width="1200" height="220" fill="#c99a5c" opacity="0.85"/><rect x="666.06" y="364.83" width="147.54" height="2.5" rx="1.2" fill="#ffffff" opacity="0.31"/><rect x="840.98" y="404.14" width="70.88" height="2.5" rx="1.2" fill="#ffffff" opacity="0.24"/><rect x="995.27" y="412.71" width="156.17" height="2.5" rx="1.2" fill="#ffffff" opacity="0.36"/><rect x="833.29" y="336.24" width="172.14" height="2.5" rx="1.2" fill="#ffffff" opacity="0.2"/><rect x="591.26" y="355.14" width="126" height="2.5" rx="1.2" fill="#ffffff" opacity="0.28"/><rect x="291.21" y="388.21" width="140.47" height="2.5" rx="1.2" fill="#ffffff" opacity="0.21"/><rect x="57.8" y="436.49" width="192.27" height="2.5" rx="1.2" fill="#ffffff" opacity="0.3"/><rect x="439.09" y="457.97" width="59.86" height="2.5" rx="1.2" fill="#ffffff" opacity="0.25"/><rect x="224.89" y="473.1" width="158.4" height="2.5" rx="1.2" fill="#ffffff" opacity="0.33"/><rect x="621.05" y="422.61" width="141.53" height="2.5" rx="1.2" fill="#ffffff" opacity="0.32"/><path d="M1076.22,288 Q1079.7,229.84 1083.18,171.68" stroke="#b3762b" stroke-width="1.63" fill="none" opacity="0.7" stroke-linecap="round"/><ellipse cx="1083.18" cy="171.68" rx="3.82" ry="8.15" fill="#b3762b" opacity="0.7" transform="rotate(6.96 1083.18 171.68)"/><path d="M328.51,288 Q333.48,242.88 338.45,197.76" stroke="#b3762b" stroke-width="1.79" fill="none" opacity="0.7" stroke-linecap="round"/><ellipse cx="338.45" cy="197.76" rx="2.69" ry="7.77" fill="#b3762b" opacity="0.7" transform="rotate(9.94 338.45 197.76)"/><path d="M1181.79,288 Q1186.32,239.87 1190.85,191.73" stroke="#b3762b" stroke-width="2.13" fill="none" opacity="0.7" stroke-linecap="round"/><ellipse cx="1190.85" cy="191.73" rx="2.79" ry="5.61" fill="#b3762b" opacity="0.7" transform="rotate(9.06 1190.85 191.73)"/><path d="M829.64,288 Q832.07,250.22 834.5,212.43" stroke="#b3762b" stroke-width="1.57" fill="none" opacity="0.7" stroke-linecap="round"/><ellipse cx="834.5" cy="212.43" rx="2.94" ry="7.98" fill="#b3762b" opacity="0.7" transform="rotate(4.86 834.5 212.43)"/><path d="M608.03,288 Q610.4,218.26 612.77,148.52" stroke="#b3762b" stroke-width="2.68" fill="none" opacity="0.7" stroke-linecap="round"/><ellipse cx="612.77" cy="148.52" rx="2.87" ry="6.23" fill="#b3762b" opacity="0.7" transform="rotate(4.74 612.77 148.52)"/><path d="M985.33,288 Q982.82,238.73 980.3,189.46" stroke="#b3762b" stroke-width="2.21" fill="none" opacity="0.7" stroke-linecap="round"/><ellipse cx="980.3" cy="189.46" rx="2.72" ry="6.12" fill="#b3762b" opacity="0.7" transform="rotate(-5.03 980.3 189.46)"/><path d="M282.09,288 Q286.4,235.14 290.71,182.27" stroke="#b3762b" stroke-width="2.84" fill="none" opacity="0.7" stroke-linecap="round"/><ellipse cx="290.71" cy="182.27" rx="3.2" ry="6.27" fill="#b3762b" opacity="0.7" transform="rotate(8.62 290.71 182.27)"/><path d="M287.41,288 Q281.3,227.52 275.19,167.04" stroke="#b3762b" stroke-width="1.97" fill="none" opacity="0.7" stroke-linecap="round"/><ellipse cx="275.19" cy="167.04" rx="3" ry="5.19" fill="#b3762b" opacity="0.7" transform="rotate(-12.22 275.19 167.04)"/><path d="M748.07,288 Q754.51,227.12 760.95,166.25" stroke="#b3762b" stroke-width="1.61" fill="none" opacity="0.7" stroke-linecap="round"/><ellipse cx="760.95" cy="166.25" rx="2.63" ry="7.22" fill="#b3762b" opacity="0.7" transform="rotate(12.88 760.95 166.25)"/><path d="M1174.09,288 Q1174.93,224.57 1175.76,161.15" stroke="#b3762b" stroke-width="1.9" fill="none" opacity="0.7" stroke-linecap="round"/><ellipse cx="1175.76" cy="161.15" rx="2.17" ry="6.1" fill="#b3762b" opacity="0.7" transform="rotate(1.67 1175.76 161.15)"/><path d="M1084.92,288 Q1080.97,209.67 1077.03,131.33" stroke="#b3762b" stroke-width="2.46" fill="none" opacity="0.7" stroke-linecap="round"/><ellipse cx="1077.03" cy="131.33" rx="3.98" ry="7.27" fill="#b3762b" opacity="0.7" transform="rotate(-7.89 1077.03 131.33)"/><path d="M928.65,288 Q922.42,231.09 916.2,174.19" stroke="#b3762b" stroke-width="2.36" fill="none" opacity="0.7" stroke-linecap="round"/><ellipse cx="916.2" cy="174.19" rx="3.28" ry="8.23" fill="#b3762b" opacity="0.7" transform="rotate(-12.45 916.2 174.19)"/><path d="M1069.39,288 Q1063.43,252.24 1057.48,216.47" stroke="#b3762b" stroke-width="2.59" fill="none" opacity="0.7" stroke-linecap="round"/><ellipse cx="1057.48" cy="216.47" rx="2.56" ry="5.6" fill="#b3762b" opacity="0.7" transform="rotate(-11.91 1057.48 216.47)"/><path d="M742.62,288 Q746.51,221.26 750.4,154.51" stroke="#b3762b" stroke-width="2.79" fill="none" opacity="0.7" stroke-linecap="round"/><ellipse cx="750.4" cy="154.51" rx="3.71" ry="7.96" fill="#b3762b" opacity="0.7" transform="rotate(7.78 750.4 154.51)"/><path d="M350.74,288 Q357.03,241.3 363.31,194.61" stroke="#b3762b" stroke-width="2.74" fill="none" opacity="0.7" stroke-linecap="round"/><ellipse cx="363.31" cy="194.61" rx="2.93" ry="8.12" fill="#b3762b" opacity="0.7" transform="rotate(12.57 363.31 194.61)"/><path d="M983.03,288 Q978.93,209.88 974.83,131.75" stroke="#b3762b" stroke-width="2.23" fill="none" opacity="0.7" stroke-linecap="round"/><ellipse cx="974.83" cy="131.75" rx="2.22" ry="7.44" fill="#b3762b" opacity="0.7" transform="rotate(-8.2 974.83 131.75)"/><path d="M1103.07,288 Q1097.87,237.85 1092.66,187.69" stroke="#b3762b" stroke-width="2.69" fill="none" opacity="0.7" stroke-linecap="round"/><ellipse cx="1092.66" cy="187.69" rx="2.43" ry="8.47" fill="#b3762b" opacity="0.7" transform="rotate(-10.41 1092.66 187.69)"/><path d="M742.32,288 Q745.03,229.14 747.73,170.28" stroke="#b3762b" stroke-width="2.33" fill="none" opacity="0.7" stroke-linecap="round"/><ellipse cx="747.73" cy="170.28" rx="2.45" ry="9" fill="#b3762b" opacity="0.7" transform="rotate(5.41 747.73 170.28)"/><path d="M75.06,288 Q69.32,218.18 63.59,148.36" stroke="#b3762b" stroke-width="2.85" fill="none" opacity="0.7" stroke-linecap="round"/><ellipse cx="63.59" cy="148.36" rx="2.5" ry="7.59" fill="#b3762b" opacity="0.7" transform="rotate(-11.47 63.59 148.36)"/><path d="M69.37,288 Q63.11,236.74 56.85,185.48" stroke="#b3762b" stroke-width="2.06" fill="none" opacity="0.7" stroke-linecap="round"/><ellipse cx="56.85" cy="185.48" rx="3.46" ry="5.15" fill="#b3762b" opacity="0.7" transform="rotate(-12.52 56.85 185.48)"/><path d="M946.39,288 Q942.01,245.3 937.63,202.61" stroke="#b3762b" stroke-width="2.29" fill="none" opacity="0.7" stroke-linecap="round"/><ellipse cx="937.63" cy="202.61" rx="2.5" ry="7.64" fill="#b3762b" opacity="0.7" transform="rotate(-8.76 937.63 202.61)"/><path d="M73.89,288 Q74.69,230.85 75.49,173.69" stroke="#b3762b" stroke-width="2.94" fill="none" opacity="0.7" stroke-linecap="round"/><ellipse cx="75.49" cy="173.69" rx="3.93" ry="6.9" fill="#b3762b" opacity="0.7" transform="rotate(1.6 75.49 173.69)"/><path d="M1091.29,288 Q1086.88,219.96 1082.48,151.92" stroke="#b3762b" stroke-width="2.55" fill="none" opacity="0.7" stroke-linecap="round"/><ellipse cx="1082.48" cy="151.92" rx="3.22" ry="6.73" fill="#b3762b" opacity="0.7" transform="rotate(-8.81 1082.48 151.92)"/><path d="M359.67,288 Q365.16,224.81 370.64,161.62" stroke="#b3762b" stroke-width="1.51" fill="none" opacity="0.7" stroke-linecap="round"/><ellipse cx="370.64" cy="161.62" rx="3.75" ry="6.84" fill="#b3762b" opacity="0.7" transform="rotate(10.97 370.64 161.62)"/><path d="M1129.15,288 Q1125.6,229.19 1122.04,170.39" stroke="#b3762b" stroke-width="1.6" fill="none" opacity="0.7" stroke-linecap="round"/><ellipse cx="1122.04" cy="170.39" rx="3.46" ry="7.07" fill="#b3762b" opacity="0.7" transform="rotate(-7.11 1122.04 170.39)"/><path d="M774.39,288 Q773.64,233.46 772.89,178.93" stroke="#b3762b" stroke-width="1.97" fill="none" opacity="0.7" stroke-linecap="round"/><ellipse cx="772.89" cy="178.93" rx="2.28" ry="8.63" fill="#b3762b" opacity="0.7" transform="rotate(-1.5 772.89 178.93)"/><path d="M922.48,288 Q920.21,229.51 917.94,171.03" stroke="#b3762b" stroke-width="1.79" fill="none" opacity="0.7" stroke-linecap="round"/><ellipse cx="917.94" cy="171.03" rx="3.62" ry="7.02" fill="#b3762b" opacity="0.7" transform="rotate(-4.54 917.94 171.03)"/><path d="M928.26,288 Q924.45,217.19 920.65,146.38" stroke="#b3762b" stroke-width="1.68" fill="none" opacity="0.7" stroke-linecap="round"/><ellipse cx="920.65" cy="146.38" rx="2.63" ry="8.05" fill="#b3762b" opacity="0.7" transform="rotate(-7.61 920.65 146.38)"/><path d="M856.1,288 Q853.97,244.87 851.83,201.74" stroke="#b3762b" stroke-width="1.71" fill="none" opacity="0.7" stroke-linecap="round"/><ellipse cx="851.83" cy="201.74" rx="3.4" ry="6.62" fill="#b3762b" opacity="0.7" transform="rotate(-4.27 851.83 201.74)"/><path d="M719.59,288 Q714.08,209.69 708.57,131.37" stroke="#b3762b" stroke-width="2.79" fill="none" opacity="0.7" stroke-linecap="round"/><ellipse cx="708.57" cy="131.37" rx="2.95" ry="5.79" fill="#b3762b" opacity="0.7" transform="rotate(-11.02 708.57 131.37)"/><path d="M791.62,288 Q788.28,221.56 784.94,155.13" stroke="#b3762b" stroke-width="2.97" fill="none" opacity="0.7" stroke-linecap="round"/><ellipse cx="784.94" cy="155.13" rx="2.03" ry="7.19" fill="#b3762b" opacity="0.7" transform="rotate(-6.68 784.94 155.13)"/><path d="M400.38,288 Q400.03,233.43 399.69,178.87" stroke="#b3762b" stroke-width="1.7" fill="none" opacity="0.7" stroke-linecap="round"/><ellipse cx="399.69" cy="178.87" rx="2" ry="8.68" fill="#b3762b" opacity="0.7" transform="rotate(-0.69 399.69 178.87)"/><path d="M1171.87,288 Q1166.7,241.77 1161.54,195.54" stroke="#b3762b" stroke-width="2.29" fill="none" opacity="0.7" stroke-linecap="round"/><ellipse cx="1161.54" cy="195.54" rx="3.25" ry="5.22" fill="#b3762b" opacity="0.7" transform="rotate(-10.33 1161.54 195.54)"/><path d="M947.8,288 Q952.63,224.85 957.46,161.7" stroke="#b3762b" stroke-width="2.4" fill="none" opacity="0.7" stroke-linecap="round"/><ellipse cx="957.46" cy="161.7" rx="3.43" ry="8.22" fill="#b3762b" opacity="0.7" transform="rotate(9.66 957.46 161.7)"/><path d="M991.99,288 Q992.6,204.47 993.21,120.95" stroke="#b3762b" stroke-width="2.21" fill="none" opacity="0.7" stroke-linecap="round"/><ellipse cx="993.21" cy="120.95" rx="3.95" ry="5.15" fill="#b3762b" opacity="0.7" transform="rotate(1.22 993.21 120.95)"/><path d="M603.69,288 Q600.69,223.25 597.69,158.49" stroke="#b3762b" stroke-width="2.19" fill="none" opacity="0.7" stroke-linecap="round"/><ellipse cx="597.69" cy="158.49" rx="2.22" ry="7.3" fill="#b3762b" opacity="0.7" transform="rotate(-6 597.69 158.49)"/><path d="M952.8,288 Q959.2,203.95 965.59,119.91" stroke="#b3762b" stroke-width="1.63" fill="none" opacity="0.7" stroke-linecap="round"/><ellipse cx="965.59" cy="119.91" rx="3.19" ry="6.96" fill="#b3762b" opacity="0.7" transform="rotate(12.79 965.59 119.91)"/><path d="M859.55,288 Q865.13,207.42 870.72,126.84" stroke="#b3762b" stroke-width="2.1" fill="none" opacity="0.7" stroke-linecap="round"/><ellipse cx="870.72" cy="126.84" rx="3.89" ry="8.85" fill="#b3762b" opacity="0.7" transform="rotate(11.17 870.72 126.84)"/><path d="M928.01,288 Q928.44,222.81 928.86,157.62" stroke="#b3762b" stroke-width="1.76" fill="none" opacity="0.7" stroke-linecap="round"/><ellipse cx="928.86" cy="157.62" rx="3.89" ry="8.88" fill="#b3762b" opacity="0.7" transform="rotate(0.85 928.86 157.62)"/><path d="M1041.96,288 Q1043.77,212.19 1045.58,136.38" stroke="#b3762b" stroke-width="1.71" fill="none" opacity="0.7" stroke-linecap="round"/><ellipse cx="1045.58" cy="136.38" rx="2.83" ry="8.69" fill="#b3762b" opacity="0.7" transform="rotate(3.62 1045.58 136.38)"/><path d="M777.97,288 Q780.68,229.75 783.39,171.5" stroke="#b3762b" stroke-width="1.46" fill="none" opacity="0.7" stroke-linecap="round"/><ellipse cx="783.39" cy="171.5" rx="3.89" ry="8.58" fill="#b3762b" opacity="0.7" transform="rotate(5.42 783.39 171.5)"/><path d="M982.56,288 Q987.55,217.92 992.55,147.84" stroke="#b3762b" stroke-width="1.76" fill="none" opacity="0.7" stroke-linecap="round"/><ellipse cx="992.55" cy="147.84" rx="3.6" ry="7.43" fill="#b3762b" opacity="0.7" transform="rotate(9.99 992.55 147.84)"/><path d="M801.16,288 Q802.52,211.19 803.88,134.38" stroke="#b3762b" stroke-width="2.5" fill="none" opacity="0.7" stroke-linecap="round"/><ellipse cx="803.88" cy="134.38" rx="3.88" ry="7.48" fill="#b3762b" opacity="0.7" transform="rotate(2.72 803.88 134.38)"/><path d="M491.84,288 Q497.15,245.06 502.47,202.12" stroke="#b3762b" stroke-width="2.27" fill="none" opacity="0.7" stroke-linecap="round"/><ellipse cx="502.47" cy="202.12" rx="2.89" ry="8.76" fill="#b3762b" opacity="0.7" transform="rotate(10.63 502.47 202.12)"/><path d="M246.84,288 Q242.75,229.18 238.67,170.36" stroke="#b3762b" stroke-width="2.36" fill="none" opacity="0.7" stroke-linecap="round"/><ellipse cx="238.67" cy="170.36" rx="3.51" ry="6.62" fill="#b3762b" opacity="0.7" transform="rotate(-8.17 238.67 170.36)"/><path d="M701.16,288 Q695.38,247.04 689.59,206.08" stroke="#b3762b" stroke-width="2.55" fill="none" opacity="0.7" stroke-linecap="round"/><ellipse cx="689.59" cy="206.08" rx="2.52" ry="5.92" fill="#b3762b" opacity="0.7" transform="rotate(-11.57 689.59 206.08)"/><path d="M344.25,288 Q344.54,236.66 344.82,185.33" stroke="#b3762b" stroke-width="2.62" fill="none" opacity="0.7" stroke-linecap="round"/><ellipse cx="344.82" cy="185.33" rx="2.66" ry="8.29" fill="#b3762b" opacity="0.7" transform="rotate(0.57 344.82 185.33)"/><path d="M346.04,288 Q349.7,231.85 353.36,175.69" stroke="#b3762b" stroke-width="2.26" fill="none" opacity="0.7" stroke-linecap="round"/><ellipse cx="353.36" cy="175.69" rx="2.54" ry="5.28" fill="#b3762b" opacity="0.7" transform="rotate(7.32 353.36 175.69)"/><path d="M241.91,288 Q236.36,246.08 230.81,204.16" stroke="#b3762b" stroke-width="2.53" fill="none" opacity="0.7" stroke-linecap="round"/><ellipse cx="230.81" cy="204.16" rx="3.63" ry="8.54" fill="#b3762b" opacity="0.7" transform="rotate(-11.1 230.81 204.16)"/><path d="M379.75,288 Q380.85,229.02 381.94,170.05" stroke="#b3762b" stroke-width="2.83" fill="none" opacity="0.7" stroke-linecap="round"/><ellipse cx="381.94" cy="170.05" rx="2.38" ry="5.2" fill="#b3762b" opacity="0.7" transform="rotate(2.19 381.94 170.05)"/><path d="M534.61,288 Q540.8,239.67 546.99,191.33" stroke="#b3762b" stroke-width="2.57" fill="none" opacity="0.7" stroke-linecap="round"/><ellipse cx="546.99" cy="191.33" rx="2.44" ry="7.39" fill="#b3762b" opacity="0.7" transform="rotate(12.38 546.99 191.33)"/><path d="M457.85,288 Q452.87,233.8 447.89,179.6" stroke="#b3762b" stroke-width="2.91" fill="none" opacity="0.7" stroke-linecap="round"/><ellipse cx="447.89" cy="179.6" rx="2.65" ry="7.33" fill="#b3762b" opacity="0.7" transform="rotate(-9.96 447.89 179.6)"/><path d="M1189.2,288 Q1183.08,204.75 1176.96,121.49" stroke="#b3762b" stroke-width="1.75" fill="none" opacity="0.7" stroke-linecap="round"/><ellipse cx="1176.96" cy="121.49" rx="2.53" ry="6.21" fill="#b3762b" opacity="0.7" transform="rotate(-12.24 1176.96 121.49)"/><path d="M545.69,288 Q540.3,248.68 534.91,209.35" stroke="#b3762b" stroke-width="1.98" fill="none" opacity="0.7" stroke-linecap="round"/><ellipse cx="534.91" cy="209.35" rx="3.06" ry="5.05" fill="#b3762b" opacity="0.7" transform="rotate(-10.78 534.91 209.35)"/><path d="M413.31,288 Q408.95,229.76 404.6,171.53" stroke="#b3762b" stroke-width="2.63" fill="none" opacity="0.7" stroke-linecap="round"/><ellipse cx="404.6" cy="171.53" rx="2.31" ry="7.07" fill="#b3762b" opacity="0.7" transform="rotate(-8.71 404.6 171.53)"/><path d="M103.78,288 Q98.8,214.88 93.82,141.77" stroke="#b3762b" stroke-width="1.43" fill="none" opacity="0.7" stroke-linecap="round"/><ellipse cx="93.82" cy="141.77" rx="3.71" ry="6.72" fill="#b3762b" opacity="0.7" transform="rotate(-9.96 93.82 141.77)"/><path d="M1198.89,288 Q1194.21,230.27 1189.53,172.54" stroke="#b3762b" stroke-width="2.35" fill="none" opacity="0.7" stroke-linecap="round"/><ellipse cx="1189.53" cy="172.54" rx="2.5" ry="6.85" fill="#b3762b" opacity="0.7" transform="rotate(-9.36 1189.53 172.54)"/><path d="M163.28,288 Q160.17,232.79 157.06,177.59" stroke="#b3762b" stroke-width="2.49" fill="none" opacity="0.7" stroke-linecap="round"/><ellipse cx="157.06" cy="177.59" rx="3.25" ry="5.06" fill="#b3762b" opacity="0.7" transform="rotate(-6.22 157.06 177.59)"/><path d="M546.49,288 Q541.2,222.42 535.91,156.83" stroke="#b3762b" stroke-width="2.5" fill="none" opacity="0.7" stroke-linecap="round"/><ellipse cx="535.91" cy="156.83" rx="2.49" ry="8.81" fill="#b3762b" opacity="0.7" transform="rotate(-10.58 535.91 156.83)"/><path d="M729,288 Q734.68,231.52 740.36,175.04" stroke="#b3762b" stroke-width="2.61" fill="none" opacity="0.7" stroke-linecap="round"/><ellipse cx="740.36" cy="175.04" rx="3.68" ry="6.24" fill="#b3762b" opacity="0.7" transform="rotate(11.36 740.36 175.04)"/><path d="M155.09,500 Q155.46,412.42 155.83,324.84" stroke="#7d4e1a" stroke-width="3" fill="none" opacity="0.85" stroke-linecap="round"/><ellipse cx="155.83" cy="324.84" rx="3.06" ry="8.88" fill="#7d4e1a" opacity="0.85" transform="rotate(0.74 155.83 324.84)"/><path d="M1016.34,500 Q1013,392.74 1009.66,285.47" stroke="#7d4e1a" stroke-width="2.32" fill="none" opacity="0.85" stroke-linecap="round"/><ellipse cx="1009.66" cy="285.47" rx="2.25" ry="8.96" fill="#7d4e1a" opacity="0.85" transform="rotate(-6.68 1009.66 285.47)"/><path d="M1153.45,500 Q1157.3,388.84 1161.15,277.69" stroke="#7d4e1a" stroke-width="2.26" fill="none" opacity="0.85" stroke-linecap="round"/><ellipse cx="1161.15" cy="277.69" rx="2.17" ry="6.17" fill="#7d4e1a" opacity="0.85" transform="rotate(7.7 1161.15 277.69)"/><path d="M895.04,500 Q895.76,391.91 896.47,283.82" stroke="#7d4e1a" stroke-width="2.68" fill="none" opacity="0.85" stroke-linecap="round"/><ellipse cx="896.47" cy="283.82" rx="2.36" ry="5.28" fill="#7d4e1a" opacity="0.85" transform="rotate(1.43 896.47 283.82)"/><path d="M792.55,500 Q792.08,395.28 791.62,290.56" stroke="#7d4e1a" stroke-width="2.56" fill="none" opacity="0.85" stroke-linecap="round"/><ellipse cx="791.62" cy="290.56" rx="3.31" ry="7.07" fill="#7d4e1a" opacity="0.85" transform="rotate(-0.93 791.62 290.56)"/><path d="M213.8,500 Q210.75,447.54 207.7,395.07" stroke="#7d4e1a" stroke-width="3" fill="none" opacity="0.85" stroke-linecap="round"/><ellipse cx="207.7" cy="395.07" rx="2.51" ry="5.66" fill="#7d4e1a" opacity="0.85" transform="rotate(-6.1 207.7 395.07)"/><path d="M121.56,500 Q127.59,444.15 133.62,388.31" stroke="#7d4e1a" stroke-width="2.19" fill="none" opacity="0.85" stroke-linecap="round"/><ellipse cx="133.62" cy="388.31" rx="2.94" ry="6" fill="#7d4e1a" opacity="0.85" transform="rotate(12.06 133.62 388.31)"/><path d="M315.19,500 Q320.75,379.96 326.3,259.92" stroke="#7d4e1a" stroke-width="2.81" fill="none" opacity="0.85" stroke-linecap="round"/><ellipse cx="326.3" cy="259.92" rx="3.07" ry="8.92" fill="#7d4e1a" opacity="0.85" transform="rotate(11.11 326.3 259.92)"/><path d="M110.29,500 Q104.37,404.06 98.45,308.12" stroke="#7d4e1a" stroke-width="2.94" fill="none" opacity="0.85" stroke-linecap="round"/><ellipse cx="98.45" cy="308.12" rx="2.72" ry="8.2" fill="#7d4e1a" opacity="0.85" transform="rotate(-11.84 98.45 308.12)"/><path d="M473.76,500 Q475.84,383.26 477.92,266.53" stroke="#7d4e1a" stroke-width="1.79" fill="none" opacity="0.85" stroke-linecap="round"/><ellipse cx="477.92" cy="266.53" rx="3.27" ry="7.36" fill="#7d4e1a" opacity="0.85" transform="rotate(4.16 477.92 266.53)"/><path d="M308.02,500 Q301.99,421.95 295.96,343.9" stroke="#7d4e1a" stroke-width="2.63" fill="none" opacity="0.85" stroke-linecap="round"/><ellipse cx="295.96" cy="343.9" rx="2.85" ry="6.99" fill="#7d4e1a" opacity="0.85" transform="rotate(-12.06 295.96 343.9)"/><path d="M608.15,500 Q610.69,437.81 613.23,375.63" stroke="#7d4e1a" stroke-width="1.75" fill="none" opacity="0.85" stroke-linecap="round"/><ellipse cx="613.23" cy="375.63" rx="2.46" ry="6.51" fill="#7d4e1a" opacity="0.85" transform="rotate(5.08 613.23 375.63)"/><path d="M617.93,500 Q612.95,411 607.97,322" stroke="#7d4e1a" stroke-width="2.83" fill="none" opacity="0.85" stroke-linecap="round"/><ellipse cx="607.97" cy="322" rx="2.63" ry="6.66" fill="#7d4e1a" opacity="0.85" transform="rotate(-9.96 607.97 322)"/><path d="M584.8,500 Q587.52,387.41 590.24,274.83" stroke="#7d4e1a" stroke-width="2.39" fill="none" opacity="0.85" stroke-linecap="round"/><ellipse cx="590.24" cy="274.83" rx="2.37" ry="7.16" fill="#7d4e1a" opacity="0.85" transform="rotate(5.44 590.24 274.83)"/><path d="M707.61,500 Q702.99,406.36 698.36,312.71" stroke="#7d4e1a" stroke-width="2.95" fill="none" opacity="0.85" stroke-linecap="round"/><ellipse cx="698.36" cy="312.71" rx="2.53" ry="7.01" fill="#7d4e1a" opacity="0.85" transform="rotate(-9.25 698.36 312.71)"/><path d="M323.7,500 Q328.75,403.42 333.8,306.84" stroke="#7d4e1a" stroke-width="1.97" fill="none" opacity="0.85" stroke-linecap="round"/><ellipse cx="333.8" cy="306.84" rx="2.36" ry="5.2" fill="#7d4e1a" opacity="0.85" transform="rotate(10.1 333.8 306.84)"/><path d="M677.8,500 Q678.92,386.66 680.04,273.32" stroke="#7d4e1a" stroke-width="2.31" fill="none" opacity="0.85" stroke-linecap="round"/><ellipse cx="680.04" cy="273.32" rx="2.15" ry="8.84" fill="#7d4e1a" opacity="0.85" transform="rotate(2.24 680.04 273.32)"/><path d="M51.26,500 Q53.36,408.57 55.46,317.15" stroke="#7d4e1a" stroke-width="2.3" fill="none" opacity="0.85" stroke-linecap="round"/><ellipse cx="55.46" cy="317.15" rx="3.33" ry="7.47" fill="#7d4e1a" opacity="0.85" transform="rotate(4.2 55.46 317.15)"/><path d="M187.15,500 Q182.94,399.29 178.74,298.58" stroke="#7d4e1a" stroke-width="2.77" fill="none" opacity="0.85" stroke-linecap="round"/><ellipse cx="178.74" cy="298.58" rx="3.51" ry="8.39" fill="#7d4e1a" opacity="0.85" transform="rotate(-8.41 178.74 298.58)"/><path d="M830.36,500 Q836.5,423.28 842.64,346.57" stroke="#7d4e1a" stroke-width="2.19" fill="none" opacity="0.85" stroke-linecap="round"/><ellipse cx="842.64" cy="346.57" rx="3.49" ry="8.06" fill="#7d4e1a" opacity="0.85" transform="rotate(12.28 842.64 346.57)"/><path d="M409.06,500 Q403,414.14 396.93,328.28" stroke="#7d4e1a" stroke-width="2.18" fill="none" opacity="0.85" stroke-linecap="round"/><ellipse cx="396.93" cy="328.28" rx="2.59" ry="5.07" fill="#7d4e1a" opacity="0.85" transform="rotate(-12.13 396.93 328.28)"/><path d="M951.28,500 Q952.75,430.82 954.23,361.65" stroke="#7d4e1a" stroke-width="2.43" fill="none" opacity="0.85" stroke-linecap="round"/><ellipse cx="954.23" cy="361.65" rx="2.78" ry="7.01" fill="#7d4e1a" opacity="0.85" transform="rotate(2.95 954.23 361.65)"/><path d="M833.96,500 Q836.48,420.34 838.99,340.67" stroke="#7d4e1a" stroke-width="2.79" fill="none" opacity="0.85" stroke-linecap="round"/><ellipse cx="838.99" cy="340.67" rx="3.73" ry="6.81" fill="#7d4e1a" opacity="0.85" transform="rotate(5.03 838.99 340.67)"/><path d="M814.59,500 Q811.51,383.3 808.43,266.59" stroke="#7d4e1a" stroke-width="2.77" fill="none" opacity="0.85" stroke-linecap="round"/><ellipse cx="808.43" cy="266.59" rx="2.71" ry="6.27" fill="#7d4e1a" opacity="0.85" transform="rotate(-6.16 808.43 266.59)"/><path d="M356.87,500 Q354.43,407.2 351.98,314.4" stroke="#7d4e1a" stroke-width="2.23" fill="none" opacity="0.85" stroke-linecap="round"/><ellipse cx="351.98" cy="314.4" rx="2.48" ry="6.54" fill="#7d4e1a" opacity="0.85" transform="rotate(-4.89 351.98 314.4)"/><path d="M397.9,500 Q397.48,438.08 397.06,376.16" stroke="#7d4e1a" stroke-width="1.68" fill="none" opacity="0.85" stroke-linecap="round"/><ellipse cx="397.06" cy="376.16" rx="2.08" ry="7.47" fill="#7d4e1a" opacity="0.85" transform="rotate(-0.84 397.06 376.16)"/><path d="M5.24,500 Q7.44,400.18 9.65,300.36" stroke="#7d4e1a" stroke-width="1.96" fill="none" opacity="0.85" stroke-linecap="round"/><ellipse cx="9.65" cy="300.36" rx="3.48" ry="6.71" fill="#7d4e1a" opacity="0.85" transform="rotate(4.41 9.65 300.36)"/><path d="M1160.73,500 Q1163.08,428.42 1165.43,356.84" stroke="#7d4e1a" stroke-width="2.49" fill="none" opacity="0.85" stroke-linecap="round"/><ellipse cx="1165.43" cy="356.84" rx="2.5" ry="6.25" fill="#7d4e1a" opacity="0.85" transform="rotate(4.7 1165.43 356.84)"/><path d="M67.88,500 Q66.71,425.63 65.53,351.26" stroke="#7d4e1a" stroke-width="2.92" fill="none" opacity="0.85" stroke-linecap="round"/><ellipse cx="65.53" cy="351.26" rx="3.8" ry="7.42" fill="#7d4e1a" opacity="0.85" transform="rotate(-2.35 65.53 351.26)"/><path d="M673.84,500 Q671.08,389.08 668.32,278.15" stroke="#7d4e1a" stroke-width="1.86" fill="none" opacity="0.85" stroke-linecap="round"/><ellipse cx="668.32" cy="278.15" rx="3.76" ry="8.55" fill="#7d4e1a" opacity="0.85" transform="rotate(-5.52 668.32 278.15)"/><path d="M1106.55,500 Q1110.33,387.83 1114.11,275.65" stroke="#7d4e1a" stroke-width="1.77" fill="none" opacity="0.85" stroke-linecap="round"/><ellipse cx="1114.11" cy="275.65" rx="3.19" ry="7.42" fill="#7d4e1a" opacity="0.85" transform="rotate(7.56 1114.11 275.65)"/><path d="M1023.36,500 Q1022.89,409.08 1022.41,318.16" stroke="#7d4e1a" stroke-width="1.48" fill="none" opacity="0.85" stroke-linecap="round"/><ellipse cx="1022.41" cy="318.16" rx="3.68" ry="6.49" fill="#7d4e1a" opacity="0.85" transform="rotate(-0.95 1022.41 318.16)"/><path d="M1152.39,500 Q1153.91,442.36 1155.44,384.73" stroke="#7d4e1a" stroke-width="2.56" fill="none" opacity="0.85" stroke-linecap="round"/><ellipse cx="1155.44" cy="384.73" rx="3.46" ry="7.08" fill="#7d4e1a" opacity="0.85" transform="rotate(3.05 1155.44 384.73)"/><path d="M805.04,500 Q810.57,428.84 816.09,357.68" stroke="#7d4e1a" stroke-width="2.07" fill="none" opacity="0.85" stroke-linecap="round"/><ellipse cx="816.09" cy="357.68" rx="2.09" ry="5.31" fill="#7d4e1a" opacity="0.85" transform="rotate(11.05 816.09 357.68)"/><path d="M464.12,500 Q459.81,394.01 455.49,288.02" stroke="#7d4e1a" stroke-width="2.71" fill="none" opacity="0.85" stroke-linecap="round"/><ellipse cx="455.49" cy="288.02" rx="2.96" ry="8.58" fill="#7d4e1a" opacity="0.85" transform="rotate(-8.63 455.49 288.02)"/><path d="M381.38,500 Q374.9,415.72 368.41,331.44" stroke="#7d4e1a" stroke-width="2.08" fill="none" opacity="0.85" stroke-linecap="round"/><ellipse cx="368.41" cy="331.44" rx="2.31" ry="8.12" fill="#7d4e1a" opacity="0.85" transform="rotate(-12.97 368.41 331.44)"/><path d="M614.89,500 Q608.53,433.42 602.18,366.84" stroke="#7d4e1a" stroke-width="2.14" fill="none" opacity="0.85" stroke-linecap="round"/><ellipse cx="602.18" cy="366.84" rx="2.07" ry="8.06" fill="#7d4e1a" opacity="0.85" transform="rotate(-12.71 602.18 366.84)"/><path d="M362.3,500 Q361.23,404.41 360.17,308.82" stroke="#7d4e1a" stroke-width="2.56" fill="none" opacity="0.85" stroke-linecap="round"/><ellipse cx="360.17" cy="308.82" rx="2.48" ry="7.57" fill="#7d4e1a" opacity="0.85" transform="rotate(-2.13 360.17 308.82)"/><path d="M1181.48,500 Q1186.67,389.56 1191.85,279.13" stroke="#7d4e1a" stroke-width="2.72" fill="none" opacity="0.85" stroke-linecap="round"/><ellipse cx="1191.85" cy="279.13" rx="2.1" ry="5.88" fill="#7d4e1a" opacity="0.85" transform="rotate(10.37 1191.85 279.13)"/><path d="M443.1,500 Q445.26,437.49 447.42,374.98" stroke="#7d4e1a" stroke-width="2.59" fill="none" opacity="0.85" stroke-linecap="round"/><ellipse cx="447.42" cy="374.98" rx="2.86" ry="5.88" fill="#7d4e1a" opacity="0.85" transform="rotate(4.32 447.42 374.98)"/><path d="M119.79,500 Q123.17,426.95 126.55,353.91" stroke="#7d4e1a" stroke-width="2.11" fill="none" opacity="0.85" stroke-linecap="round"/><ellipse cx="126.55" cy="353.91" rx="2.82" ry="7.62" fill="#7d4e1a" opacity="0.85" transform="rotate(6.76 126.55 353.91)"/><path d="M820.45,500 Q817.91,421.04 815.38,342.07" stroke="#7d4e1a" stroke-width="2.27" fill="none" opacity="0.85" stroke-linecap="round"/><ellipse cx="815.38" cy="342.07" rx="3.62" ry="7.14" fill="#7d4e1a" opacity="0.85" transform="rotate(-5.07 815.38 342.07)"/><path d="M951.92,500 Q947.22,432.35 942.52,364.71" stroke="#7d4e1a" stroke-width="1.8" fill="none" opacity="0.85" stroke-linecap="round"/><ellipse cx="942.52" cy="364.71" rx="2.51" ry="8.69" fill="#7d4e1a" opacity="0.85" transform="rotate(-9.4 942.52 364.71)"/><path d="M321.52,500 Q320.21,429.7 318.91,359.4" stroke="#7d4e1a" stroke-width="1.96" fill="none" opacity="0.85" stroke-linecap="round"/><ellipse cx="318.91" cy="359.4" rx="2.54" ry="8.26" fill="#7d4e1a" opacity="0.85" transform="rotate(-2.61 318.91 359.4)"/><path d="M331.57,500 Q329.28,400.93 327,301.86" stroke="#7d4e1a" stroke-width="1.5" fill="none" opacity="0.85" stroke-linecap="round"/><ellipse cx="327" cy="301.86" rx="2.6" ry="5.62" fill="#7d4e1a" opacity="0.85" transform="rotate(-4.57 327 301.86)"/><path d="M230.94,500 Q229.31,389.53 227.67,279.05" stroke="#7d4e1a" stroke-width="1.64" fill="none" opacity="0.85" stroke-linecap="round"/><ellipse cx="227.67" cy="279.05" rx="3.83" ry="5.67" fill="#7d4e1a" opacity="0.85" transform="rotate(-3.27 227.67 279.05)"/><path d="M605.5,500 Q601.5,435.28 597.5,370.57" stroke="#7d4e1a" stroke-width="1.86" fill="none" opacity="0.85" stroke-linecap="round"/><ellipse cx="597.5" cy="370.57" rx="2.81" ry="8.26" fill="#7d4e1a" opacity="0.85" transform="rotate(-8 597.5 370.57)"/><path d="M146.43,500 Q144.23,419.22 142.02,338.43" stroke="#7d4e1a" stroke-width="2.66" fill="none" opacity="0.85" stroke-linecap="round"/><ellipse cx="142.02" cy="338.43" rx="3.15" ry="7.55" fill="#7d4e1a" opacity="0.85" transform="rotate(-4.41 142.02 338.43)"/><path d="M832.87,500 Q833.42,383.15 833.98,266.3" stroke="#7d4e1a" stroke-width="1.96" fill="none" opacity="0.85" stroke-linecap="round"/><ellipse cx="833.98" cy="266.3" rx="3.32" ry="5.22" fill="#7d4e1a" opacity="0.85" transform="rotate(1.11 833.98 266.3)"/><path d="M553.29,500 Q553.02,419.08 552.75,338.16" stroke="#7d4e1a" stroke-width="1.88" fill="none" opacity="0.85" stroke-linecap="round"/><ellipse cx="552.75" cy="338.16" rx="3.96" ry="6.66" fill="#7d4e1a" opacity="0.85" transform="rotate(-0.54 552.75 338.16)"/><path d="M902.62,500 Q897.34,380.4 892.05,260.8" stroke="#7d4e1a" stroke-width="2.85" fill="none" opacity="0.85" stroke-linecap="round"/><ellipse cx="892.05" cy="260.8" rx="2.34" ry="6.6" fill="#7d4e1a" opacity="0.85" transform="rotate(-10.57 892.05 260.8)"/><path d="M481.88,500 Q480.97,437.68 480.05,375.37" stroke="#7d4e1a" stroke-width="2.1" fill="none" opacity="0.85" stroke-linecap="round"/><ellipse cx="480.05" cy="375.37" rx="2.28" ry="6.5" fill="#7d4e1a" opacity="0.85" transform="rotate(-1.83 480.05 375.37)"/><path d="M793.52,500 Q799.39,385.89 805.25,271.78" stroke="#7d4e1a" stroke-width="2" fill="none" opacity="0.85" stroke-linecap="round"/><ellipse cx="805.25" cy="271.78" rx="3.63" ry="5.74" fill="#7d4e1a" opacity="0.85" transform="rotate(11.73 805.25 271.78)"/><path d="M1104.1,500 Q1110.53,404.62 1116.97,309.25" stroke="#7d4e1a" stroke-width="2.93" fill="none" opacity="0.85" stroke-linecap="round"/><ellipse cx="1116.97" cy="309.25" rx="3.9" ry="7" fill="#7d4e1a" opacity="0.85" transform="rotate(12.87 1116.97 309.25)"/><path d="M109.71,500 Q105.18,394.77 100.65,289.54" stroke="#7d4e1a" stroke-width="2.58" fill="none" opacity="0.85" stroke-linecap="round"/><ellipse cx="100.65" cy="289.54" rx="2.34" ry="6.18" fill="#7d4e1a" opacity="0.85" transform="rotate(-9.06 100.65 289.54)"/><path d="M299.82,500 Q298.61,401.46 297.4,302.91" stroke="#7d4e1a" stroke-width="1.81" fill="none" opacity="0.85" stroke-linecap="round"/><ellipse cx="297.4" cy="302.91" rx="3.82" ry="5.23" fill="#7d4e1a" opacity="0.85" transform="rotate(-2.42 297.4 302.91)"/><path d="M662.57,500 Q668.24,438.78 673.91,377.56" stroke="#7d4e1a" stroke-width="1.7" fill="none" opacity="0.85" stroke-linecap="round"/><ellipse cx="673.91" cy="377.56" rx="2.68" ry="7.63" fill="#7d4e1a" opacity="0.85" transform="rotate(11.34 673.91 377.56)"/><path d="M337.27,500 Q340.67,409.18 344.06,318.36" stroke="#7d4e1a" stroke-width="2.22" fill="none" opacity="0.85" stroke-linecap="round"/><ellipse cx="344.06" cy="318.36" rx="3.95" ry="7.15" fill="#7d4e1a" opacity="0.85" transform="rotate(6.79 344.06 318.36)"/><path d="M688.53,500 Q682.95,445.79 677.37,391.57" stroke="#7d4e1a" stroke-width="2.63" fill="none" opacity="0.85" stroke-linecap="round"/><ellipse cx="677.37" cy="391.57" rx="3.92" ry="5.83" fill="#7d4e1a" opacity="0.85" transform="rotate(-11.16 677.37 391.57)"/><path d="M1016.89,500 Q1018.27,425.76 1019.64,351.52" stroke="#7d4e1a" stroke-width="2.93" fill="none" opacity="0.85" stroke-linecap="round"/><ellipse cx="1019.64" cy="351.52" rx="2.24" ry="6.43" fill="#7d4e1a" opacity="0.85" transform="rotate(2.75 1019.64 351.52)"/><path d="M389.52,500 Q390.25,398.72 390.97,297.45" stroke="#7d4e1a" stroke-width="2.23" fill="none" opacity="0.85" stroke-linecap="round"/><ellipse cx="390.97" cy="297.45" rx="3.14" ry="6.59" fill="#7d4e1a" opacity="0.85" transform="rotate(1.45 390.97 297.45)"/><path d="M178.26,500 Q172.54,440.35 166.83,380.69" stroke="#7d4e1a" stroke-width="2.06" fill="none" opacity="0.85" stroke-linecap="round"/><ellipse cx="166.83" cy="380.69" rx="3.78" ry="6.34" fill="#7d4e1a" opacity="0.85" transform="rotate(-11.43 166.83 380.69)"/><path d="M889.36,500 Q887.19,417.37 885.02,334.75" stroke="#7d4e1a" stroke-width="1.96" fill="none" opacity="0.85" stroke-linecap="round"/><ellipse cx="885.02" cy="334.75" rx="2.23" ry="7.23" fill="#7d4e1a" opacity="0.85" transform="rotate(-4.34 885.02 334.75)"/><path d="M17.01,500 Q23.23,408.45 29.44,316.9" stroke="#7d4e1a" stroke-width="2.73" fill="none" opacity="0.85" stroke-linecap="round"/><ellipse cx="29.44" cy="316.9" rx="3.65" ry="7.37" fill="#7d4e1a" opacity="0.85" transform="rotate(12.43 29.44 316.9)"/><path d="M813.23,500 Q809.6,415.64 805.98,331.28" stroke="#7d4e1a" stroke-width="2.51" fill="none" opacity="0.85" stroke-linecap="round"/><ellipse cx="805.98" cy="331.28" rx="3.39" ry="6.47" fill="#7d4e1a" opacity="0.85" transform="rotate(-7.25 805.98 331.28)"/><path d="M345.88,500 Q346.59,392.75 347.3,285.5" stroke="#7d4e1a" stroke-width="1.6" fill="none" opacity="0.85" stroke-linecap="round"/><ellipse cx="347.3" cy="285.5" rx="2.14" ry="7.38" fill="#7d4e1a" opacity="0.85" transform="rotate(1.42 347.3 285.5)"/><path d="M94,500 Q96.79,429.3 99.58,358.6" stroke="#7d4e1a" stroke-width="2.14" fill="none" opacity="0.85" stroke-linecap="round"/><ellipse cx="99.58" cy="358.6" rx="2.02" ry="8.66" fill="#7d4e1a" opacity="0.85" transform="rotate(5.58 99.58 358.6)"/><path d="M737.69,500 Q734.04,436.57 730.38,373.15" stroke="#7d4e1a" stroke-width="2.11" fill="none" opacity="0.85" stroke-linecap="round"/><ellipse cx="730.38" cy="373.15" rx="2.28" ry="5.57" fill="#7d4e1a" opacity="0.85" transform="rotate(-7.31 730.38 373.15)"/><path d="M1092.32,500 Q1092.98,388.93 1093.63,277.87" stroke="#7d4e1a" stroke-width="1.56" fill="none" opacity="0.85" stroke-linecap="round"/><ellipse cx="1093.63" cy="277.87" rx="3.22" ry="5.67" fill="#7d4e1a" opacity="0.85" transform="rotate(1.31 1093.63 277.87)"/><path d="M1163.51,500 Q1160.51,405.3 1157.51,310.6" stroke="#7d4e1a" stroke-width="1.77" fill="none" opacity="0.85" stroke-linecap="round"/><ellipse cx="1157.51" cy="310.6" rx="2.93" ry="8.21" fill="#7d4e1a" opacity="0.85" transform="rotate(-6 1157.51 310.6)"/><path d="M1144.39,500 Q1140.71,391.46 1137.02,282.91" stroke="#7d4e1a" stroke-width="2.97" fill="none" opacity="0.85" stroke-linecap="round"/><ellipse cx="1137.02" cy="282.91" rx="3.72" ry="6.1" fill="#7d4e1a" opacity="0.85" transform="rotate(-7.37 1137.02 282.91)"/><path d="M988.61,500 Q985.95,429.3 983.29,358.61" stroke="#7d4e1a" stroke-width="2.31" fill="none" opacity="0.85" stroke-linecap="round"/><ellipse cx="983.29" cy="358.61" rx="3" ry="8" fill="#7d4e1a" opacity="0.85" transform="rotate(-5.32 983.29 358.61)"/><path d="M615.59,500 Q616.91,419.27 618.22,338.55" stroke="#7d4e1a" stroke-width="1.61" fill="none" opacity="0.85" stroke-linecap="round"/><ellipse cx="618.22" cy="338.55" rx="2.48" ry="6.52" fill="#7d4e1a" opacity="0.85" transform="rotate(2.63 618.22 338.55)"/><path d="M546.65,500 Q548.2,403.55 549.75,307.09" stroke="#7d4e1a" stroke-width="1.91" fill="none" opacity="0.85" stroke-linecap="round"/><ellipse cx="549.75" cy="307.09" rx="2.02" ry="8.19" fill="#7d4e1a" opacity="0.85" transform="rotate(3.1 549.75 307.09)"/><path d="M311.38,500 Q316.27,439.69 321.16,379.38" stroke="#7d4e1a" stroke-width="2.15" fill="none" opacity="0.85" stroke-linecap="round"/><ellipse cx="321.16" cy="379.38" rx="2.21" ry="8.93" fill="#7d4e1a" opacity="0.85" transform="rotate(9.78 321.16 379.38)"/><path d="M1037.55,500 Q1032.81,442.72 1028.06,385.44" stroke="#7d4e1a" stroke-width="2.87" fill="none" opacity="0.85" stroke-linecap="round"/><ellipse cx="1028.06" cy="385.44" rx="3.56" ry="7.24" fill="#7d4e1a" opacity="0.85" transform="rotate(-9.49 1028.06 385.44)"/><path d="M1158.88,500 Q1154.23,414.8 1149.57,329.59" stroke="#7d4e1a" stroke-width="2.27" fill="none" opacity="0.85" stroke-linecap="round"/><ellipse cx="1149.57" cy="329.59" rx="2.98" ry="7.32" fill="#7d4e1a" opacity="0.85" transform="rotate(-9.31 1149.57 329.59)"/><path d="M441.68,500 Q447.91,404.22 454.15,308.45" stroke="#7d4e1a" stroke-width="2.36" fill="none" opacity="0.85" stroke-linecap="round"/><ellipse cx="454.15" cy="308.45" rx="3.39" ry="8.65" fill="#7d4e1a" opacity="0.85" transform="rotate(12.47 454.15 308.45)"/><path d="M584.95,500 Q585.01,411.85 585.07,323.71" stroke="#7d4e1a" stroke-width="2.26" fill="none" opacity="0.85" stroke-linecap="round"/><ellipse cx="585.07" cy="323.71" rx="2.98" ry="5.11" fill="#7d4e1a" opacity="0.85" transform="rotate(0.12 585.07 323.71)"/><path d="M804.49,500 Q804.12,414.04 803.74,328.08" stroke="#7d4e1a" stroke-width="1.66" fill="none" opacity="0.85" stroke-linecap="round"/><ellipse cx="803.74" cy="328.08" rx="2.54" ry="7.28" fill="#7d4e1a" opacity="0.85" transform="rotate(-0.75 803.74 328.08)"/>
</svg>