<svg xmlns="http://www.w3.org/2000/svg" viewBox="0 0 1200 630" width="1200" height="630" role="img">
<defs><linearGradient id="sky" x1="0" y1="0" x2="0" y2="1">
<stop offset="0%" stop-color="#eef1f5"/><stop offset="100%" stop-color="#c9d2dc"/>
</linearGradient></defs>
<rect width="1200" height="630" fill="url(#sky)"/>
<rect x="21.9" y="369.83" width="111.56" height="171.97" fill="#8d9aa8" opacity="0.4" rx="2"/><rect x="122.84" y="392.25" width="108.21" height="149.55" fill="#8d9aa8" opacity="0.4" rx="2"/><rect x="235.53" y="386.55" width="109.17" height="155.25" fill="#8d9aa8" opacity="0.4" rx="2"/><rect x="346.11" y="428.44" width="63.23" height="113.36" fill="#8d9aa8" opacity="0.4" rx="2"/><rect x="443.38" y="378.29" width="72.35" height="163.51" fill="#8d9aa8" opacity="0.4" rx="2"/><rect x="558.06" y="427.6" width="89.39" height="114.2" fill="#8d9aa8" opacity="0.4" rx="2"/><rect x="665.34" y="411.1" width="108.76" height="130.7" fill="#8d9aa8" opacity="0.4" rx="2"/><rect x="776.19" y="399.88" width="87.24" height="141.92" fill="#8d9aa8" opacity="0.4" rx="2"/><rect x="896.87" y="434.8" width="77.28" height="107" fill="#8d9aa8" opacity="0.4" rx="2"/><rect x="1007.51" y="358.03" width="80.57" height="183.77" fill="#8d9aa8" opacity="0.4" rx="2"/><rect x="1107.87" y="360.72" width="70.55" height="181.08" fill="#8d9aa8" opacity="0.4" rx="2"/><rect x="8.2" y="365.28" width="54.05" height="176.52" fill="#5f6b78" opacity="0.65" rx="2"/><rect x="109.55" y="204.02" width="92.35" height="337.78" fill="#5f6b78" opacity="0.65" rx="2"/><rect x="214.65" y="231.74" width="67.22" height="310.06" fill="#5f6b78" opacity="0.65" rx="2"/><rect x="340.08" y="340.18" width="71.16" height="201.62" fill="#5f6b78" opacity="0.65" rx="2"/><rect x="426.42" y="385.49" width="111.7" height="156.31" fill="#5f6b78" opacity="0.65" rx="2"/><rect x="547.34" y="218.39" width="95.43" height="323.41" fill="#5f6b78" opacity="0.65" rx="2"/><rect x="656.93" y="205.69" width="71.17" height="336.11" fill="#5f6b78" opacity="0.65" rx="2"/><rect x="771.89" y="376.9" width="81.64" height="164.9" fill="#5f6b78" opacity="0.65" rx="2"/><rect x="863.61" y="318.39" width="87.57" height="223.41" fill="#5f6b78" opacity="0.65" rx="2"/><rect x="989.72" y="383.23" width="72.92" height="158.57" fill="#5f6b78" opacity="0.65" rx="2"/><rect x="1094.68" y="418.76" width="71.97" height="123.04" fill="#5f6b78" opacity="0.65" rx="2"/><rect x="-12.98" y="113.73" width="108.41" height="428.07" fill="#39424c" opacity="0.95" rx="2"/><rect x="9.27" y="289.5" width="4" height="6" fill="#c98a4b" opacity="0.66"/><rect x="58.89" y="400.06" width="4" height="6" fill="#c98a4b" opacity="0.86"/><rect x="34.67" y="282.46" width="4" height="6" fill="#c98a4b" opacity="0.77"/><rect x="-3.25" y="436.94" width="4" height="6" fill="#c98a4b" opacity="0.53"/><rect x="0.38" y="166.1" width="4" height="6" fill="#c98a4b" opacity="0.66"/><rect x="31.77" y="480.75" width="4" height="6" fill="#c98a4b" opacity="0.85"/><rect x="94.85" y="332.73" width="68.03" height="209.07" fill="#39424c" opacity="0.95" rx="2"/><rect x="154.14" y="418.42" width="4" height="6" fill="#c98a4b" opacity="0.88"/><rect x="131.5" y="390.31" width="4" height="6" fill="#c98a4b" opacity="0.69"/><rect x="121.9" y="509.88" width="4" height="6" fill="#c98a4b" opacity="0.72"/><rect x="127.72" y="346.45" width="4" height="6" fill="#c98a4b" opacity="0.65"/><rect x="100.3" y="409.89" width="4" height="6" fill="#c98a4b" opacity="0.43"/><rect x="135.43" y="377.05" width="4" height="6" fill="#c98a4b" opacity="0.9"/><rect x="207.45" y="168.04" width="102.81" height="373.76" fill="#39424c" opacity="0.95" rx="2"/><rect x="226.58" y="319.76" width="4" height="6" fill="#c98a4b" opacity="0.88"/><rect x="256.55" y="249.22" width="4" height="6" fill="#c98a4b" opacity="0.66"/><rect x="253.62" y="225.55" width="4" height="6" fill="#c98a4b" opacity="0.7"/><rect x="214.94" y="320.35" width="4" height="6" fill="#c98a4b" opacity="0.89"/><rect x="259.21" y="206.13" width="4" height="6" fill="#c98a4b" opacity="0.7"/><rect x="284.07" y="358.4" width="4" height="6" fill="#c98a4b" opacity="0.88"/><rect x="317.93" y="382.36" width="84.22" height="159.44" fill="#39424c" opacity="0.95" rx="2"/><rect x="388.68" y="406.56" width="4" height="6" fill="#c98a4b" opacity="0.49"/><rect x="331.21" y="479.56" width="4" height="6" fill="#c98a4b" opacity="0.7"/><rect x="363.47" y="402.98" width="4" height="6" fill="#c98a4b" opacity="0.78"/><rect x="340.68" y="413.97" width="4" height="6" fill="#c98a4b" opacity="0.75"/><rect x="331.48" y="468.23" width="4" height="6" fill="#c98a4b" opacity="0.69"/><rect x="342.35" y="529.55" width="4" height="6" fill="#c98a4b" opacity="0.63"/><rect x="414.29" y="133.6" width="85.24" height="408.2" fill="#39424c" opacity="0.95" rx="2"/><rect x="420.39" y="181.33" width="4" height="6" fill="#c98a4b" opacity="0.77"/><rect x="480.82" y="243.02" width="4" height="6" fill="#c98a4b" opacity="0.57"/><rect x="445.88" y="175.45" width="4" height="6" fill="#c98a4b" opacity="0.71"/><rect x="442.08" y="459.36" width="4" height="6" fill="#c98a4b" opacity="0.47"/><rect x="435.36" y="372.99" width="4" height="6" fill="#c98a4b" opacity="0.85"/><rect x="440.74" y="299.83" width="4" height="6" fill="#c98a4b" opacity="0.71"/><rect x="533.51" y="381.89" width="75.95" height="159.91" fill="#39424c" opacity="0.95" rx="2"/><rect x="582.1" y="486.12" width="4" height="6" fill="#c98a4b" opacity="0.7"/><rect x="568.84" y="512.8" width="4" height="6" fill="#c98a4b" opacity="0.66"/><rect x="586.3" y="426.89" width="4" height="6" fill="#c98a4b" opacity="0.76"/><rect x="580.98" y="475.7" width="4" height="6" fill="#c98a4b" opacity="0.47"/><rect x="576.16" y="416.13" width="4" height="6" fill="#c98a4b" opacity="0.75"/><rect x="560.04" y="483.85" width="4" height="6" fill="#c98a4b" opacity="0.71"/><rect x="645.69" y="312.46" width="76.31" height="229.34" fill="#39424c" opacity="0.95" rx="2"/><rect x="690.39" y="414.53" width="4" height="6" fill="#c98a4b" opacity="0.84"/><rect x="701.22" y="503.05" width="4" height="6" fill="#c98a4b" opacity="0.46"/><rect x="676.12" y="490.31" width="4" height="6" fill="#c98a4b" opacity="0.58"/><rect x="697.23" y="429.93" width="4" height="6" fill="#c98a4b" opacity="0.79"/><rect x="696.26" y="383.35" width="4" height="6" fill="#c98a4b" opacity="0.41"/><rect x="711.48" y="365.76" width="4" height="6" fill="#c98a4b" opacity="0.88"/><rect x="745.71" y="154.13" width="83.95" height="387.67" fill="#39424c" opacity="0.95" rx="2"/><rect x="768.62" y="171.24" width="4" height="6" fill="#c98a4b" opacity="0.77"/><rect x="767.7" y="274.46" width="4" height="6" fill="#c98a4b" opacity="0.42"/><rect x="767.62" y="503.14" width="4" height="6" fill="#c98a4b" opacity="0.43"/><rect x="807.73" y="236.37" width="4" height="6" fill="#c98a4b" opacity="0.44"/><rect x="751.75" y="226.08" width="4" height="6" fill="#c98a4b" opacity="0.7"/><rect x="760.49" y="283.82" width="4" height="6" fill="#c98a4b" opacity="0.68"/><rect x="849.54" y="403.07" width="78.75" height="138.73" fill="#39424c" opacity="0.95" rx="2"/><rect x="854.65" y="529.62" width="4" height="6" fill="#c98a4b" opacity="0.71"/><rect x="854.66" y="479.98" width="4" height="6" fill="#c98a4b" opacity="0.4"/><rect x="864.9" y="429.38" width="4" height="6" fill="#c98a4b" opacity="0.65"/><rect x="879.32" y="492.56" width="4" height="6" fill="#c98a4b" opacity="0.45"/><rect x="900.18" y="418.54" width="4" height="6" fill="#c98a4b" opacity="0.47"/><rect x="884.37" y="493.75" width="4" height="6" fill="#c98a4b" opacity="0.47"/><rect x="975.84" y="161.02" width="90.18" height="380.78" fill="#39424c" opacity="0.95" rx="2"/><rect x="982.4" y="364.71" width="4" height="6" fill="#c98a4b" opacity="0.55"/><rect x="1051.81" y="465.18" width="4" height="6" fill="#c98a4b" opacity="0.65"/><rect x="1007.93" y="211.21" width="4" height="6" fill="#c98a4b" opacity="0.46"/><rect x="1055.5" y="289.83" width="4" height="6" fill="#c98a4b" opacity="0.83"/><rect x="999.63" y="332.89" width="4" height="6" fill="#c98a4b" opacity="0.42"/><rect x="1037.81" y="439.67" width="4" height="6" fill="#c98a4b" opacity="0.7"/><rect x="1091.62" y="397.61" width="106.74" height="144.19" fill="#39424c" opacity="0.95" rx="2"/><rect x="1165.49" y="457.61" width="4" height="6" fill="#c98a4b" opacity="0.77"/><rect x="1181.8" y="510.41" width="4" height="6" fill="#c98a4b" opacity="0.84"/><rect x="1115.43" y="415.78" width="4" height="6" fill="#c98a4b" opacity="0.51"/><rect x="1155.12" y="444.34" width="4" height="6" fill="#c98a4b" opacity="0.51"/><rect x="1170.59" y="411.99" width="4" height="6" fill="#c98a4b" opacity="0.43"/><rect x="1162.84" y="419.49" width="4" height="6" fill="#c98a4b" opacity="0.84"/><rect x="0" y="541.8" width="1200" height="88.2" fill="#39424c"/>
</svg>