<svg xmlns="http://www.w3.org/2000/svg" viewBox="0 0 1200 500" width="1200" height="500" role="img">
<defs><linearGradient id="sky" x1="0" y1="0" x2="0" y2="1">
<stop offset="0%" stop-color="#fcefe0"/><stop offset="100%" stop-color="#f2c79b"/>
</linearGradient></defs>
<rect width="1200" height="500" fill="url(#sky)"/>
<path d="M0,410 L0,127.09 C120,127.09 180,152.11 300,152.11 C420,152.11 480,124.73 600,124.73 C720,124.73 780,125.84 900,125.84 C1020,125.84 1080,132.04 1200,132.04 L1200,410 Z" fill="#d1793c" opacity="0.5"/><path d="M0,410 L0,283.75 C80,283.75 120,247.02 200,247.02 C280,247.02 320,263.54 400,263.54 C480,263.54 520,269.37 600,269.37 C680,269.37 720,272.05 800,272.05 C880,272.05 920,249.25 1000,249.25 C1080,249.25 1120,247.74 1200,247.74 L1200,410 Z" fill="#b04b26" opacity="0.6"/><rect x="0" y="410" width="1200" height="90" fill="#6f2a1c" opacity="0.45"/><rect x="6.16" y="335.13" width="155.69" height="74.87" fill="#b04b26" rx="2"/><path d="M-1.84,335.13 L84.01,301.44 L169.85,335.13 Z" fill="#6f2a1c"/><rect x="37.3" y="359.09" width="31.14" height="19.47" fill="#efa15a" opacity="0.85" rx="1"/><rect x="102.69" y="359.09" width="31.14" height="19.47" fill="#efa15a" opacity="0.85" rx="1"/><rect x="255.39" y="332.74" width="155.22" height="77.26" fill="#b04b26" rx="2"/><path d="M247.39,332.74 L333,297.97 L418.61,332.74 Z" fill="#6f2a1c"/><rect x="286.43" y="357.46" width="31.04" height="20.09" fill="#efa15a" opacity="0.85" rx="1"/><rect x="351.63" y="357.46" width="31.04" height="20.09" fill="#efa15a" opacity="0.85" rx="1"/><rect x="515.75" y="320.95" width="132.5" height="89.05" fill="#b04b26" rx="2"/><path d="M507.75,320.95 L582,280.88 L656.25,320.95 Z" fill="#6f2a1c"/><rect x="542.25" y="349.45" width="26.5" height="23.15" fill="#efa15a" opacity="0.85" rx="1"/><rect x="597.9" y="349.45" width="26.5" height="23.15" fill="#efa15a" opacity="0.85" rx="1"/><rect x="763.6" y="321.58" width="134.8" height="88.42" fill="#b04b26" rx="2"/><path d="M755.6,321.58 L831,281.79 L906.4,321.58 Z" fill="#6f2a1c"/><rect x="790.56" y="349.87" width="26.96" height="22.99" fill="#efa15a" opacity="0.85" rx="1"/><rect x="847.18" y="349.87" width="26.96" height="22.99" fill="#efa15a" opacity="0.85" rx="1"/><rect x="1012.36" y="327.38" width="135.28" height="82.62" fill="#b04b26" rx="2"/><path d="M1004.36,327.38 L1080,290.2 L1155.64,327.38 Z" fill="#6f2a1c"/><rect x="1039.42" y="353.82" width="27.06" height="21.48" fill="#efa15a" opacity="0.85" rx="1"/><rect x="1096.23" y="353.82" width="27.06" height="21.48" fill="#efa15a" opacity="0.85" rx="1"/><rect x="185.05" y="344.44" width="8.52" height="85.23" fill="#6f2a1c" rx="2.84"/><circle cx="200.79" cy="312.41" r="32.38" fill="#efa15a" opacity="0.92"/><circle cx="181.33" cy="323.04" r="38.78" fill="#efa15a" opacity="0.92"/><circle cx="189.97" cy="317.45" r="30.64" fill="#efa15a" opacity="0.92"/><rect x="466.96" y="353.26" width="8.2" height="81.96" fill="#6f2a1c" rx="2.73"/><circle cx="459.19" cy="325.7" r="33.4" fill="#efa15a" opacity="0.92"/><circle cx="467.96" cy="333.48" r="29.01" fill="#efa15a" opacity="0.92"/><circle cx="463.06" cy="327.12" r="42.36" fill="#efa15a" opacity="0.92"/><rect x="758.65" y="353.55" width="9.37" height="93.67" fill="#6f2a1c" rx="3.12"/><circle cx="766.97" cy="327.22" r="34.16" fill="#efa15a" opacity="0.92"/><circle cx="748.5" cy="325.12" r="39.86" fill="#efa15a" opacity="0.92"/><circle cx="774.57" cy="317.87" r="43.04" fill="#efa15a" opacity="0.92"/><rect x="1063.84" y="336.82" width="9.62" height="96.17" fill="#6f2a1c" rx="3.21"/><circle cx="1087.39" cy="319.09" r="42.87" fill="#efa15a" opacity="0.92"/><circle cx="1056.83" cy="306.9" r="47.71" fill="#efa15a" opacity="0.92"/><circle cx="1074.4" cy="314.64" r="29.73" fill="#efa15a" opacity="0.92"/><ellipse cx="1045.17" cy="167.82" rx="5.86" ry="3.52" fill="#efa15a" opacity="0.29" transform="rotate(88.65 1045.17 167.82)"/><ellipse cx="662.99" cy="128.08" rx="7.1" ry="4.26" fill="#efa15a" opacity="0.55" transform="rotate(50.91 662.99 128.08)"/><ellipse cx="651.03" cy="287.52" rx="3.65" ry="2.19" fill="#efa15a" opacity="0.4" transform="rotate(4.52 651.03 287.52)"/><ellipse cx="997.09" cy="337.24" rx="4.86" ry="2.92" fill="#efa15a" opacity="0.61" transform="rotate(12.08 997.09 337.24)"/><ellipse cx="130.59" cy="169.33" rx="4.04" ry="2.42" fill="#efa15a" opacity="0.5" transform="rotate(32.77 130.59 169.33)"/><ellipse cx="573.84" cy="224.33" rx="5.87" ry="3.52" fill="#efa15a" opacity="0.28" transform="rotate(41.01 573.84 224.33)"/><ellipse cx="475.63" cy="89.01" rx="4.62" ry="2.77" fill="#efa15a" opacity="0.54" transform="rotate(59.56 475.63 89.01)"/><ellipse cx="195.4" cy="184.38" rx="7.29" ry="4.37" fill="#efa15a" opacity="0.52" transform="rotate(156.19 195.4 184.38)"/><ellipse cx="984.89" cy="169.15" rx="3.8" ry="2.28" fill="#efa15a" opacity="0.59" transform="rotate(30.65 984.89 169.15)"/><ellipse cx="831.54" cy="146.91" rx="3.14" ry="1.88" fill="#efa15a" opacity="0.53" transform="rotate(17.83 831.54 146.91)"/><ellipse cx="1083.32" cy="278.75" rx="5.67" ry="3.4" fill="#efa15a" opacity="0.47" transform="rotate(146.41 1083.32 278.75)"/><ellipse cx="389.77" cy="174.06" rx="4.77" ry="2.86" fill="#efa15a" opacity="0.43" transform="rotate(130.59 389.77 174.06)"/><ellipse cx="798.3" cy="284.94" rx="4.14" ry="2.48" fill="#efa15a" opacity="0.29" transform="rotate(55.57 798.3 284.94)"/><ellipse cx="103.87" cy="300.03" rx="4.29" ry="2.57" fill="#efa15a" opacity="0.61" transform="rotate(71.12 103.87 300.03)"/>
</svg>