<svg xmlns="http://www.w3.org/2000/svg" viewBox="0 0 1200 500" width="1200" height="500" role="img">
<defs><linearGradient id="sky" x1="0" y1="0" x2="0" y2="1">
<stop offset="0%" stop-color="#eef1f5"/><stop offset="100%" stop-color="#c9d2dc"/>
</linearGradient></defs>
<rect width="1200" height="500" fill="url(#sky)"/>
<rect x="11.6" y="269.85" width="112.86" height="160.15" fill="#8d9aa8" opacity="0.4" rx="2"/><rect x="126.63" y="317.11" width="99.6" height="112.89" fill="#8d9aa8" opacity="0.4" rx="2"/><rect x="228.57" y="345.38" width="71.83" height="84.62" fill="#8d9aa8" opacity="0.4" rx="2"/><rect x="336.27" y="284.25" width="58.3" height="145.75" fill="#8d9aa8" opacity="0.4" rx="2"/><rect x="453.88" y="342.73" width="64.51" height="87.27" fill="#8d9aa8" opacity="0.4" rx="2"/><rect x="562.32" y="259.83" width="99.37" height="170.17" fill="#8d9aa8" opacity="0.4" rx="2"/><rect x="656.37" y="291.82" width="93" height="138.18" fill="#8d9aa8" opacity="0.4" rx="2"/><rect x="768.62" y="253.49" width="69.62" height="176.51" fill="#8d9aa8" opacity="0.4" rx="2"/><rect x="895.95" y="270.54" width="96.03" height="159.46" fill="#8d9aa8" opacity="0.4" rx="2"/><rect x="998.33" y="268.48" width="100.7" height="161.52" fill="#8d9aa8" opacity="0.4" rx="2"/><rect x="1099.12" y="291.97" width="96.6" height="138.03" fill="#8d9aa8" opacity="0.4" rx="2"/><rect x="-6.12" y="341.37" width="59.72" height="88.63" fill="#5f6b78" opacity="0.65" rx="2"/><rect x="110.2" y="293.87" width="71.75" height="136.13" fill="#5f6b78" opacity="0.65" rx="2"/><rect x="230.78" y="213.67" width="58.02" height="216.33" fill="#5f6b78" opacity="0.65" rx="2"/><rect x="321.46" y="195.45" width="90.69" height="234.55" fill="#5f6b78" opacity="0.65" rx="2"/><rect x="446.81" y="220.82" width="117.93" height="209.18" fill="#5f6b78" opacity="0.65" rx="2"/><rect x="535.51" y="283.05" width="103.15" height="146.95" fill="#5f6b78" opacity="0.65" rx="2"/><rect x="667.63" y="214.59" width="96.68" height="215.41" fill="#5f6b78" opacity="0.65" rx="2"/><rect x="776.57" y="199.8" width="105.13" height="230.2" fill="#5f6b78" opacity="0.65" rx="2"/><rect x="878.3" y="303.94" width="117.7" height="126.06" fill="#5f6b78" opacity="0.65" rx="2"/><rect x="980.33" y="255.75" width="59.75" height="174.25" fill="#5f6b78" opacity="0.65" rx="2"/><rect x="1080.2" y="242.4" width="116.78" height="187.6" fill="#5f6b78" opacity="0.65" rx="2"/><rect x="-1.14" y="219.62" width="105.46" height="210.38" fill="#39424c" opacity="0.95" rx="2"/><rect x="30.73" y="390.7" width="4" height="6" fill="#c98a4b" opacity="0.8"/><rect x="34.25" y="279.11" width="4" height="6" fill="#c98a4b" opacity="0.63"/><rect x="87.32" y="387.49" width="4" height="6" fill="#c98a4b" opacity="0.86"/><rect x="71.86" y="385.93" width="4" height="6" fill="#c98a4b" opacity="0.72"/><rect x="95.46" y="258.23" width="4" height="6" fill="#c98a4b" opacity="0.48"/><rect x="81.4" y="361.38" width="4" height="6" fill="#c98a4b" opacity="0.78"/><rect x="87.27" y="70.97" width="102.06" height="359.03" fill="#39424c" opacity="0.95" rx="2"/><rect x="160.46" y="296.19" width="4" height="6" fill="#c98a4b" opacity="0.71"/><rect x="125.33" y="229.08" width="4" height="6" fill="#c98a4b" opacity="0.5"/><rect x="128.99" y="227.1" width="4" height="6" fill="#c98a4b" opacity="0.83"/><rect x="149.93" y="355" width="4" height="6" fill="#c98a4b" opacity="0.71"/><rect x="138.26" y="209.1" width="4" height="6" fill="#c98a4b" opacity="0.64"/><rect x="106.48" y="256.17" width="4" height="6" fill="#c98a4b" opacity="0.77"/><rect x="199.7" y="289.81" width="72.3" height="140.19" fill="#39424c" opacity="0.95" rx="2"/><rect x="224.51" y="337.34" width="4" height="6" fill="#c98a4b" opacity="0.51"/><rect x="229.61" y="306.58" width="4" height="6" fill="#c98a4b" opacity="0.83"/><rect x="242" y="380.14" width="4" height="6" fill="#c98a4b" opacity="0.47"/><rect x="260.02" y="353.31" width="4" height="6" fill="#c98a4b" opacity="0.85"/><rect x="254.92" y="368.78" width="4" height="6" fill="#c98a4b" opacity="0.4"/><rect x="228.34" y="381.21" width="4" height="6" fill="#c98a4b" opacity="0.79"/><rect x="306.12" y="149.71" width="114.76" height="280.29" fill="#39424c" opacity="0.95" rx="2"/><rect x="321.54" y="236.58" width="4" height="6" fill="#c98a4b" opacity="0.47"/><rect x="340.47" y="242.49" width="4" height="6" fill="#c98a4b" opacity="0.46"/><rect x="407.18" y="185.65" width="4" height="6" fill="#c98a4b" opacity="0.81"/><rect x="405.52" y="209.21" width="4" height="6" fill="#c98a4b" opacity="0.47"/><rect x="341.09" y="246.88" width="4" height="6" fill="#c98a4b" opacity="0.8"/><rect x="406.27" y="187.15" width="4" height="6" fill="#c98a4b" opacity="0.88"/><rect x="423.95" y="175.4" width="63.87" height="254.6" fill="#39424c" opacity="0.95" rx="2"/><rect x="448.52" y="410.13" width="4" height="6" fill="#c98a4b" opacity="0.72"/><rect x="457.78" y="231.85" width="4" height="6" fill="#c98a4b" opacity="0.54"/><rect x="445.6" y="338.93" width="4" height="6" fill="#c98a4b" opacity="0.47"/><rect x="477.52" y="265.81" width="4" height="6" fill="#c98a4b" opacity="0.41"/><rect x="469.59" y="411.29" width="4" height="6" fill="#c98a4b" opacity="0.53"/><rect x="447.07" y="301.22" width="4" height="6" fill="#c98a4b" opacity="0.68"/><rect x="535.42" y="273.46" width="111.52" height="156.54" fill="#39424c" opacity="0.95" rx="2"/><rect x="582.56" y="389.44" width="4" height="6" fill="#c98a4b" opacity="0.85"/><rect x="580.54" y="402.23" width="4" height="6" fill="#c98a4b" opacity="0.74"/><rect x="553.02" y="403.02" width="4" height="6" fill="#c98a4b" opacity="0.48"/><rect x="637.38" y="384.69" width="4" height="6" fill="#c98a4b" opacity="0.74"/><rect x="583.38" y="326.7" width="4" height="6" fill="#c98a4b" opacity="0.48"/><rect x="603.42" y="399.2" width="4" height="6" fill="#c98a4b" opacity="0.56"/><rect x="653.86" y="124.73" width="65.52" height="305.27" fill="#39424c" opacity="0.95" rx="2"/><rect x="674.85" y="258.86" width="4" height="6" fill="#c98a4b" opacity="0.59"/><rect x="698.04" y="197.07" width="4" height="6" fill="#c98a4b" opacity="0.42"/><rect x="710.51" y="414.75" width="4" height="6" fill="#c98a4b" opacity="0.84"/><rect x="697.94" y="267.12" width="4" height="6" fill="#c98a4b" opacity="0.77"/><rect x="689.89" y="387.9" width="4" height="6" fill="#c98a4b" opacity="0.87"/><rect x="680.26" y="375.06" width="4" height="6" fill="#c98a4b" opacity="0.44"/><rect x="748.01" y="324.22" width="103.42" height="105.78" fill="#39424c" opacity="0.95" rx="2"/><rect x="818.79" y="385.39" width="4" height="6" fill="#c98a4b" opacity="0.8"/><rect x="778.02" y="402.02" width="4" height="6" fill="#c98a4b" opacity="0.86"/><rect x="839.25" y="372.23" width="4" height="6" fill="#c98a4b" opacity="0.43"/><rect x="799.52" y="349.42" width="4" height="6" fill="#c98a4b" opacity="0.67"/><rect x="792.21" y="381.72" width="4" height="6" fill="#c98a4b" opacity="0.45"/><rect x="810.45" y="385.92" width="4" height="6" fill="#c98a4b" opacity="0.45"/><rect x="873.81" y="223.25" width="60.58" height="206.75" fill="#39424c" opacity="0.95" rx="2"/><rect x="881.38" y="303.07" width="4" height="6" fill="#c98a4b" opacity="0.68"/><rect x="911.44" y="330.01" width="4" height="6" fill="#c98a4b" opacity="0.53"/><rect x="883.53" y="309.37" width="4" height="6" fill="#c98a4b" opacity="0.65"/><rect x="911.87" y="373.99" width="4" height="6" fill="#c98a4b" opacity="0.74"/><rect x="906.57" y="269.54" width="4" height="6" fill="#c98a4b" opacity="0.58"/><rect x="913.32" y="260.59" width="4" height="6" fill="#c98a4b" opacity="0.7"/><rect x="975.6" y="224.69" width="73.63" height="205.31" fill="#39424c" opacity="0.95" rx="2"/><rect x="1013.98" y="385.66" width="4" height="6" fill="#c98a4b" opacity="0.89"/><rect x="1006.64" y="373.59" width="4" height="6" fill="#c98a4b" opacity="0.7"/><rect x="984.45" y="336.49" width="4" height="6" fill="#c98a4b" opacity="0.43"/><rect x="1025.92" y="250.68" width="4" height="6" fill="#c98a4b" opacity="0.87"/><rect x="1040.98" y="322.15" width="4" height="6" fill="#c98a4b" opacity="0.85"/><rect x="1034.78" y="279.01" width="4" height="6" fill="#c98a4b" opacity="0.81"/><rect x="1089.15" y="141.64" width="117.37" height="288.36" fill="#39424c" opacity="0.95" rx="2"/><rect x="1168.01" y="242.98" width="4" height="6" fill="#c98a4b" opacity="0.45"/><rect x="1127.97" y="417.19" width="4" height="6" fill="#c98a4b" opacity="0.84"/><rect x="1097.91" y="189.76" width="4" height="6" fill="#c98a4b" opacity="0.74"/><rect x="1159.72" y="162.17" width="4" height="6" fill="#c98a4b" opacity="0.51"/><rect x="1123.74" y="392.73" width="4" height="6" fill="#c98a4b" opacity="0.7"/><rect x="1182.91" y="254.25" width="4" height="6" fill="#c98a4b" opacity="0.44"/><rect x="0" y="430" width="1200" height="70" fill="#39424c"/>
</svg>