<svg xmlns="http://www.w3.org/2000/svg" viewBox="0 0 1200 630" width="1200" height="630" role="img">
<defs><linearGradient id="sky" x1="0" y1="0" x2="0" y2="1">
<stop offset="0%" stop-color="#f7f3e6"/><stop offset="100%" stop-color="#e2d7b6"/>
</linearGradient></defs>
<rect width="1200" height="630" fill="url(#sky)"/>
<path d="M0,516.6 L0,186.41 C120,186.41 180,169.4 300,169.4 C420,169.4 480,213.39 600,213.39 C720,213.39 780,204.39 900,204.39 C1020,204.39 1080,166.01 1200,166.01 L1200,516.6 Z" fill="#b9a672" opacity="0.5"/><path d="M0,516.6 L0,319.4 C80,319.4 120,330.07 200,330.07 C280,330.07 320,330.94 400,330.94 C480,330.94 520,317.63 600,317.63 C680,317.63 720,337.14 800,337.14 C880,337.14 920,314.67 1000,314.67 C1080,314.67 1120,322.07 1200,322.07 L1200,516.6 Z" fill="#8d7c4c" opacity="0.6"/><rect x="0" y="516.6" width="1200" height="113.4" fill="#5a4f30" opacity="0.45"/><rect x="28.28" y="401.77" width="111.44" height="114.83" fill="#8d7c4c" rx="2"/><path d="M20.28,401.77 L84,350.1 L147.72,401.77 Z" fill="#5a4f30"/><rect x="50.57" y="438.52" width="22.29" height="29.86" fill="#d8c88c" opacity="0.85" rx="1"/><rect x="97.37" y="438.52" width="22.29" height="29.86" fill="#d8c88c" opacity="0.85" rx="1"/><rect x="254.69" y="393.28" width="156.61" height="123.32" fill="#8d7c4c" rx="2"/><path d="M246.69,393.28 L333,337.79 L419.3,393.28 Z" fill="#5a4f30"/><rect x="286.01" y="432.74" width="31.32" height="32.06" fill="#d8c88c" opacity="0.85" rx="1"/><rect x="351.79" y="432.74" width="31.32" height="32.06" fill="#d8c88c" opacity="0.85" rx="1"/><rect x="520.72" y="393.36" width="122.56" height="123.24" fill="#8d7c4c" rx="2"/><path d="M512.72,393.36 L582,337.9 L651.28,393.36 Z" fill="#5a4f30"/><rect x="545.23" y="432.8" width="24.51" height="32.04" fill="#d8c88c" opacity="0.85" rx="1"/><rect x="596.71" y="432.8" width="24.51" height="32.04" fill="#d8c88c" opacity="0.85" rx="1"/><rect x="754.41" y="392.71" width="153.18" height="123.89" fill="#8d7c4c" rx="2"/><path d="M746.41,392.71 L831,336.96 L915.59,392.71 Z" fill="#5a4f30"/><rect x="785.05" y="432.35" width="30.64" height="32.21" fill="#d8c88c" opacity="0.85" rx="1"/><rect x="849.38" y="432.35" width="30.64" height="32.21" fill="#d8c88c" opacity="0.85" rx="1"/><rect x="1006.04" y="396.64" width="147.93" height="119.96" fill="#8d7c4c" rx="2"/><path d="M998.04,396.64 L1080,342.66 L1161.97,396.64 Z" fill="#5a4f30"/><rect x="1035.63" y="435.03" width="29.59" height="31.19" fill="#d8c88c" opacity="0.85" rx="1"/><rect x="1097.76" y="435.03" width="29.59" height="31.19" fill="#d8c88c" opacity="0.85" rx="1"/><rect x="163.45" y="447.66" width="9.47" height="94.66" fill="#5a4f30" rx="3.16"/><circle cx="186.72" cy="419.9" r="35.91" fill="#d8c88c" opacity="0.92"/><circle cx="180.34" cy="419.89" r="37.62" fill="#d8c88c" opacity="0.92"/><circle cx="186.74" cy="437.28" r="35.17" fill="#d8c88c" opacity="0.92"/><rect x="504.88" y="484.08" width="7.03" height="70.3" fill="#5a4f30" rx="2.34"/><circle cx="499.76" cy="475.89" r="34.81" fill="#d8c88c" opacity="0.92"/><circle cx="500.18" cy="475.91" r="22.85" fill="#d8c88c" opacity="0.92"/><circle cx="522.63" cy="476.27" r="21.67" fill="#d8c88c" opacity="0.92"/><rect x="782.24" y="477.91" width="6.89" height="68.88" fill="#5a4f30" rx="2.3"/><circle cx="792.6" cy="469.7" r="21.66" fill="#d8c88c" opacity="0.92"/><circle cx="788.41" cy="455.65" r="32.4" fill="#d8c88c" opacity="0.92"/><circle cx="797.7" cy="466.72" r="35.69" fill="#d8c88c" opacity="0.92"/><rect x="1033.71" y="448.51" width="9.01" height="90.14" fill="#5a4f30" rx="3"/><circle cx="1019.84" cy="416.81" r="38.63" fill="#d8c88c" opacity="0.92"/><circle cx="1041.32" cy="428.32" r="41.62" fill="#d8c88c" opacity="0.92"/><circle cx="1032.67" cy="420.48" r="37.21" fill="#d8c88c" opacity="0.92"/><ellipse cx="142.06" cy="212.75" rx="4.76" ry="2.86" fill="#d8c88c" opacity="0.56" transform="rotate(157.16 142.06 212.75)"/><ellipse cx="388.53" cy="133.66" rx="3.84" ry="2.3" fill="#d8c88c" opacity="0.5" transform="rotate(130.1 388.53 133.66)"/><ellipse cx="342.03" cy="63.99" rx="5.62" ry="3.37" fill="#d8c88c" opacity="0.6" transform="rotate(127.68 342.03 63.99)"/><ellipse cx="354.16" cy="234.72" rx="6.15" ry="3.69" fill="#d8c88c" opacity="0.59" transform="rotate(108.14 354.16 234.72)"/><ellipse cx="53.5" cy="76.35" rx="6.61" ry="3.97" fill="#d8c88c" opacity="0.59" transform="rotate(42.15 53.5 76.35)"/><ellipse cx="865.72" cy="311.76" rx="3.5" ry="2.1" fill="#d8c88c" opacity="0.43" transform="rotate(4.41 865.72 311.76)"/><ellipse cx="402.13" cy="378.64" rx="4.64" ry="2.78" fill="#d8c88c" opacity="0.5" transform="rotate(32.64 402.13 378.64)"/><ellipse cx="1142.96" cy="257.59" rx="7.74" ry="4.64" fill="#d8c88c" opacity="0.41" transform="rotate(30.02 1142.96 257.59)"/><ellipse cx="545.95" cy="57.46" rx="5.71" ry="3.43" fill="#d8c88c" opacity="0.44" transform="rotate(83.45 545.95 57.46)"/><ellipse cx="17.26" cy="121.54" rx="3.53" ry="2.12" fill="#d8c88c" opacity="0.36" transform="rotate(40.71 17.26 121.54)"/><ellipse cx="535.52" cy="269.34" rx="7.3" ry="4.38" fill="#d8c88c" opacity="0.32" transform="rotate(70.32 535.52 269.34)"/><ellipse cx="1074.39" cy="289.83" rx="3.34" ry="2" fill="#d8c88c" opacity="0.51" transform="rotate(12.49 1074.39 289.83)"/><ellipse cx="579.43" cy="183.15" rx="5.57" ry="3.34" fill="#d8c88c" opacity="0.63" transform="rotate(116.49 579.43 183.15)"/><ellipse cx="541.66" cy="417.42" rx="3.11" ry="1.87" fill="#d8c88c" opacity="0.65" transform="rotate(110.17 541.66 417.42)"/>
</svg>