<svg xmlns="http://www.w3.org/2000/svg" viewBox="0 0 1200 630" width="1200" height="630" role="img">
<defs><linearGradient id="sky" x1="0" y1="0" x2="0" y2="1">
<stop offset="0%" stop-color="#f8eef0"/><stop offset="100%" stop-color="#d9b0bb"/>
</linearGradient></defs>
<rect width="1200" height="630" fill="url(#sky)"/>
<rect x="10.68" y="360.38" width="90.8" height="181.42" fill="#b07686" opacity="0.4" rx="2"/><rect x="116.08" y="403.81" width="85.02" height="137.99" fill="#b07686" opacity="0.4" rx="2"/><rect x="241.88" y="350.2" width="61.01" height="191.6" fill="#b07686" opacity="0.4" rx="2"/><rect x="340.6" y="417.47" width="59.96" height="124.33" fill="#b07686" opacity="0.4" rx="2"/><rect x="450.05" y="332.28" width="114.67" height="209.52" fill="#b07686" opacity="0.4" rx="2"/><rect x="552.55" y="399.35" width="56.3" height="142.45" fill="#b07686" opacity="0.4" rx="2"/><rect x="659.17" y="434.33" width="73.97" height="107.47" fill="#b07686" opacity="0.4" rx="2"/><rect x="787.59" y="335.48" width="102.66" height="206.32" fill="#b07686" opacity="0.4" rx="2"/><rect x="891.39" y="315.39" width="71.41" height="226.41" fill="#b07686" opacity="0.4" rx="2"/><rect x="1002" y="435.99" width="60.46" height="105.81" fill="#b07686" opacity="0.4" rx="2"/><rect x="1111.31" y="424.88" width="119.15" height="116.92" fill="#b07686" opacity="0.4" rx="2"/><rect x="3.55" y="237.9" width="76.38" height="303.9" fill="#7d4a5c" opacity="0.65" rx="2"/><rect x="121.79" y="309.08" width="76.08" height="232.72" fill="#7d4a5c" opacity="0.65" rx="2"/><rect x="211.39" y="217.83" width="78.16" height="323.97" fill="#7d4a5c" opacity="0.65" rx="2"/><rect x="328.51" y="232.29" width="91" height="309.51" fill="#7d4a5c" opacity="0.65" rx="2"/><rect x="427.66" y="232.15" width="102.98" height="309.65" fill="#7d4a5c" opacity="0.65" rx="2"/><rect x="535.47" y="232.39" width="69.96" height="309.41" fill="#7d4a5c" opacity="0.65" rx="2"/><rect x="664.72" y="372.32" width="85.8" height="169.48" fill="#7d4a5c" opacity="0.65" rx="2"/><rect x="774.07" y="341.33" width="60.85" height="200.47" fill="#7d4a5c" opacity="0.65" rx="2"/><rect x="878.44" y="260.11" width="64.32" height="281.69" fill="#7d4a5c" opacity="0.65" rx="2"/><rect x="987.57" y="274.17" width="81.22" height="267.63" fill="#7d4a5c" opacity="0.65" rx="2"/><rect x="1080.66" y="211.06" width="80.29" height="330.74" fill="#7d4a5c" opacity="0.65" rx="2"/><rect x="-16.42" y="300.49" width="70.38" height="241.31" fill="#472936" opacity="0.95" rx="2"/><rect x="42.02" y="484.44" width="4" height="6" fill="#d1929f" opacity="0.55"/><rect x="20.81" y="312.89" width="4" height="6" fill="#d1929f" opacity="0.46"/><rect x="-0.22" y="343.35" width="4" height="6" fill="#d1929f" opacity="0.83"/><rect x="3.69" y="384.72" width="4" height="6" fill="#d1929f" opacity="0.73"/><rect x="21.95" y="476.9" width="4" height="6" fill="#d1929f" opacity="0.45"/><rect x="29.38" y="388.07" width="4" height="6" fill="#d1929f" opacity="0.76"/><rect x="86.54" y="217.59" width="61.97" height="324.21" fill="#472936" opacity="0.95" rx="2"/><rect x="122.81" y="337.85" width="4" height="6" fill="#d1929f" opacity="0.54"/><rect x="101.87" y="396.79" width="4" height="6" fill="#d1929f" opacity="0.51"/><rect x="137.52" y="393.44" width="4" height="6" fill="#d1929f" opacity="0.71"/><rect x="96.85" y="235.88" width="4" height="6" fill="#d1929f" opacity="0.78"/><rect x="118.26" y="395.72" width="4" height="6" fill="#d1929f" opacity="0.47"/><rect x="94.19" y="432.75" width="4" height="6" fill="#d1929f" opacity="0.62"/><rect x="214.03" y="264.24" width="83.07" height="277.56" fill="#472936" opacity="0.95" rx="2"/><rect x="251.16" y="405.21" width="4" height="6" fill="#d1929f" opacity="0.86"/><rect x="272.11" y="346.84" width="4" height="6" fill="#d1929f" opacity="0.79"/><rect x="282.54" y="462.85" width="4" height="6" fill="#d1929f" opacity="0.79"/><rect x="266.11" y="413.26" width="4" height="6" fill="#d1929f" opacity="0.87"/><rect x="221.82" y="420.28" width="4" height="6" fill="#d1929f" opacity="0.59"/><rect x="283.11" y="469.03" width="4" height="6" fill="#d1929f" opacity="0.47"/><rect x="317.83" y="131.31" width="60.79" height="410.49" fill="#472936" opacity="0.95" rx="2"/><rect x="361.62" y="239.19" width="4" height="6" fill="#d1929f" opacity="0.57"/><rect x="353.25" y="211.03" width="4" height="6" fill="#d1929f" opacity="0.9"/><rect x="341.01" y="232.22" width="4" height="6" fill="#d1929f" opacity="0.46"/><rect x="335.46" y="248.3" width="4" height="6" fill="#d1929f" opacity="0.49"/><rect x="352.9" y="293.72" width="4" height="6" fill="#d1929f" opacity="0.7"/><rect x="332.01" y="161.54" width="4" height="6" fill="#d1929f" opacity="0.76"/><rect x="421.21" y="243.89" width="83.12" height="297.91" fill="#472936" opacity="0.95" rx="2"/><rect x="480.06" y="426.57" width="4" height="6" fill="#d1929f" opacity="0.58"/><rect x="460.51" y="306.73" width="4" height="6" fill="#d1929f" opacity="0.81"/><rect x="487.99" y="477.19" width="4" height="6" fill="#d1929f" opacity="0.71"/><rect x="490.49" y="363.08" width="4" height="6" fill="#d1929f" opacity="0.71"/><rect x="439.17" y="333.86" width="4" height="6" fill="#d1929f" opacity="0.82"/><rect x="486.33" y="445.09" width="4" height="6" fill="#d1929f" opacity="0.5"/><rect x="534.32" y="235.08" width="72.64" height="306.72" fill="#472936" opacity="0.95" rx="2"/><rect x="548.12" y="274.51" width="4" height="6" fill="#d1929f" opacity="0.45"/><rect x="584.14" y="444.8" width="4" height="6" fill="#d1929f" opacity="0.85"/><rect x="563.82" y="297.11" width="4" height="6" fill="#d1929f" opacity="0.58"/><rect x="544.28" y="523.43" width="4" height="6" fill="#d1929f" opacity="0.58"/><rect x="548.3" y="497.44" width="4" height="6" fill="#d1929f" opacity="0.75"/><rect x="596.38" y="330.92" width="4" height="6" fill="#d1929f" opacity="0.72"/><rect x="641.15" y="105.48" width="69.63" height="436.32" fill="#472936" opacity="0.95" rx="2"/><rect x="681.84" y="354.31" width="4" height="6" fill="#d1929f" opacity="0.4"/><rect x="688.49" y="336.96" width="4" height="6" fill="#d1929f" opacity="0.46"/><rect x="677.2" y="383.09" width="4" height="6" fill="#d1929f" opacity="0.59"/><rect x="700.21" y="479.06" width="4" height="6" fill="#d1929f" opacity="0.75"/><rect x="689.24" y="450" width="4" height="6" fill="#d1929f" opacity="0.54"/><rect x="648.86" y="203.08" width="4" height="6" fill="#d1929f" opacity="0.7"/><rect x="761.41" y="331.44" width="59.58" height="210.36" fill="#472936" opacity="0.95" rx="2"/><rect x="800.13" y="480.58" width="4" height="6" fill="#d1929f" opacity="0.57"/><rect x="808.79" y="460.15" width="4" height="6" fill="#d1929f" opacity="0.55"/><rect x="800.76" y="378.76" width="4" height="6" fill="#d1929f" opacity="0.52"/><rect x="780.74" y="404.89" width="4" height="6" fill="#d1929f" opacity="0.83"/><rect x="795.13" y="383.53" width="4" height="6" fill="#d1929f" opacity="0.84"/><rect x="793.32" y="449.79" width="4" height="6" fill="#d1929f" opacity="0.74"/><rect x="872.31" y="411.12" width="56.98" height="130.68" fill="#472936" opacity="0.95" rx="2"/><rect x="907.07" y="488.08" width="4" height="6" fill="#d1929f" opacity="0.48"/><rect x="915.91" y="518.97" width="4" height="6" fill="#d1929f" opacity="0.51"/><rect x="902.65" y="480.32" width="4" height="6" fill="#d1929f" opacity="0.64"/><rect x="877.96" y="472.83" width="4" height="6" fill="#d1929f" opacity="0.64"/><rect x="917.9" y="421.83" width="4" height="6" fill="#d1929f" opacity="0.46"/><rect x="877.74" y="446.09" width="4" height="6" fill="#d1929f" opacity="0.43"/><rect x="977.71" y="398.24" width="109.57" height="143.56" fill="#472936" opacity="0.95" rx="2"/><rect x="986.73" y="497.5" width="4" height="6" fill="#d1929f" opacity="0.55"/><rect x="1001.4" y="506.36" width="4" height="6" fill="#d1929f" opacity="0.88"/><rect x="1062.28" y="480.54" width="4" height="6" fill="#d1929f" opacity="0.41"/><rect x="1074.58" y="490.71" width="4" height="6" fill="#d1929f" opacity="0.81"/><rect x="1032.67" y="514.77" width="4" height="6" fill="#d1929f" opacity="0.87"/><rect x="1048.83" y="483.68" width="4" height="6" fill="#d1929f" opacity="0.79"/><rect x="1085.89" y="322.33" width="79.79" height="219.47" fill="#472936" opacity="0.95" rx="2"/><rect x="1118.18" y="522.79" width="4" height="6" fill="#d1929f" opacity="0.78"/><rect x="1132.75" y="395.5" width="4" height="6" fill="#d1929f" opacity="0.52"/><rect x="1143.21" y="418.79" width="4" height="6" fill="#d1929f" opacity="0.6"/><rect x="1140.31" y="333.69" width="4" height="6" fill="#d1929f" opacity="0.45"/><rect x="1120.31" y="363.53" width="4" height="6" fill="#d1929f" opacity="0.53"/><rect x="1107.16" y="470.24" width="4" height="6" fill="#d1929f" opacity="0.57"/><rect x="0" y="541.8" width="1200" height="88.2" fill="#472936"/>
</svg>